<svg width="189" height="41" viewBox="0 0 189 41" fill="none" xmlns="http://www.w3.org/2000/svg">
<path d="M49.2399 25.3519H41.0829C40.8102 25.3519 40.6118 25.1303 40.6118 24.8842V22.2996C40.6118 22.0288 40.8349 21.8319 41.0829 21.8319H48.0498C48.3226 21.8319 48.5209 21.6104 48.5209 21.3642V19.0504C48.5209 18.7796 48.2978 18.5827 48.0498 18.5827H41.0829C40.8102 18.5827 40.6118 18.3611 40.6118 18.115V15.678C40.6118 15.4073 40.8349 15.2104 41.0829 15.2104H49.116C49.3887 15.2104 49.587 14.9888 49.587 14.7427V12.4288C49.587 12.158 49.3639 11.9611 49.116 11.9611H37.4135C37.1407 11.9611 36.9424 12.1827 36.9424 12.4288V28.158C36.9424 28.4288 37.1655 28.6257 37.4135 28.6257H49.2399C49.5126 28.6257 49.711 28.4042 49.711 28.158V25.8442C49.711 25.5488 49.5126 25.3519 49.2399 25.3519Z" fill="#484848"/>
<path d="M66.8929 11.9365H64.1408C63.8681 11.9365 63.6697 12.1581 63.6697 12.4042V21.4873C63.6697 24.1211 62.3061 25.475 60.0499 25.475C57.7937 25.475 56.4301 24.0719 56.4301 21.3642V12.4042C56.4301 12.1334 56.2069 11.9365 55.959 11.9365H53.2069C52.9342 11.9365 52.7358 12.1581 52.7358 12.4042V21.4627C52.7358 26.3611 55.4879 28.8719 60.0003 28.8719C64.5127 28.8719 67.3639 26.3858 67.3639 21.3396V12.4042C67.3639 12.1581 67.1408 11.9365 66.8929 11.9365Z" fill="#484848"/>
<path d="M81.8431 23.1365C81.6695 22.8904 81.7687 22.5704 82.0414 22.4473C83.8761 21.5858 85.1158 19.9611 85.1158 17.4996C85.1158 15.875 84.6199 14.5704 83.6778 13.635C82.5869 12.5519 80.9257 11.9365 78.7935 11.9365H71.6034C71.3307 11.9365 71.1323 12.1581 71.1323 12.4042V28.1334C71.1323 28.4042 71.3555 28.6011 71.6034 28.6011H74.3555C74.6282 28.6011 74.8265 28.3796 74.8265 28.1334V23.7273C74.8265 23.4565 75.0497 23.2596 75.2976 23.2596H77.4298C77.5786 23.2596 77.7274 23.3334 77.8265 23.4565L81.1984 28.3796C81.2976 28.5027 81.4216 28.5765 81.5951 28.5765H84.7687C85.1406 28.5765 85.3637 28.1581 85.1654 27.8381L81.8431 23.1365ZM78.5455 20.035H75.2728C75.0001 20.035 74.8017 19.8134 74.8017 19.5673V15.7273C74.8017 15.4565 75.0249 15.2596 75.2728 15.2596H78.4712C80.2811 15.2596 81.372 16.0719 81.372 17.6473C81.372 19.075 80.3555 20.035 78.5455 20.035Z" fill="#484848"/>
<path d="M96.6447 11.6411C91.4629 11.6411 87.6943 15.5303 87.6943 20.2565C87.6943 25.0319 91.4133 28.8719 96.5952 28.8719C101.777 28.8719 105.546 24.9827 105.546 20.2565C105.546 15.4811 101.827 11.6411 96.6447 11.6411ZM96.6447 25.4996C93.6695 25.4996 91.5621 23.1119 91.5621 20.2565C91.5621 17.3519 93.62 15.0134 96.5952 15.0134C99.5704 15.0134 101.678 17.4011 101.678 20.2565C101.703 23.1857 99.62 25.4996 96.6447 25.4996Z" fill="#484848"/>
<path d="M115.513 18.6318C112.612 17.8934 111.893 17.5488 111.893 16.4411C111.893 15.5795 112.637 14.9395 114.05 14.9395C115.339 14.9395 116.678 15.4564 118.042 16.3426C118.265 16.4903 118.538 16.4164 118.686 16.2195L120.075 14.2011C120.223 13.9795 120.174 13.7088 119.951 13.5611C118.314 12.3795 116.356 11.7149 114.1 11.7149C110.678 11.7149 108.223 13.7088 108.223 16.7364C108.223 20.0841 110.405 21.0195 113.777 21.8811C116.579 22.5949 117.149 23.0626 117.149 23.998C117.149 25.0318 116.232 25.6226 114.719 25.6226C112.959 25.6226 111.471 24.958 110.058 23.8749C109.86 23.7272 109.562 23.7518 109.414 23.9488L107.827 25.8441C107.653 26.0411 107.678 26.3611 107.901 26.5088C109.86 28.0841 112.265 28.8718 114.645 28.8718C118.265 28.8718 120.819 27.0257 120.819 23.7026C120.843 20.7241 118.934 19.518 115.513 18.6318Z" fill="#484848"/>
<path d="M135.942 11.9365H122.975C122.703 11.9365 122.504 12.1581 122.504 12.4042V14.8411C122.504 15.1119 122.728 15.3088 122.975 15.3088H127.141C127.413 15.3088 127.612 15.5304 127.612 15.7765V28.1088C127.612 28.3796 127.835 28.5765 128.083 28.5765H130.835C131.108 28.5765 131.306 28.355 131.306 28.1088V15.8011C131.306 15.5304 131.529 15.3334 131.777 15.3334H135.942C136.215 15.3334 136.413 15.1119 136.413 14.8658V12.4288C136.413 12.1581 136.19 11.9365 135.942 11.9365Z" fill="#484848"/>
<path d="M146.728 11.6411C141.546 11.6411 137.777 15.5303 137.777 20.2565C137.777 25.0319 141.496 28.8719 146.678 28.8719C151.86 28.8719 155.629 24.9827 155.629 20.2565C155.604 15.4811 151.885 11.6411 146.728 11.6411ZM146.728 25.4996C143.753 25.4996 141.645 23.1119 141.645 20.2565C141.645 17.3519 143.703 15.0134 146.678 15.0134C149.653 15.0134 151.761 17.4011 151.761 20.2565C151.761 23.1857 149.678 25.4996 146.728 25.4996Z" fill="#484848"/>
<path d="M169.637 23.1365C169.463 22.8904 169.562 22.5704 169.835 22.4473C171.67 21.5858 172.909 19.9611 172.909 17.4996C172.909 15.875 172.413 14.5704 171.471 13.635C170.38 12.5519 168.719 11.9365 166.587 11.9365H159.397C159.124 11.9365 158.926 12.1581 158.926 12.4042V28.1334C158.926 28.4042 159.149 28.6011 159.397 28.6011H162.149C162.422 28.6011 162.62 28.3796 162.62 28.1334V23.7273C162.62 23.4565 162.843 23.2596 163.091 23.2596H165.223C165.372 23.2596 165.521 23.3334 165.62 23.4565L168.992 28.3796C169.091 28.5027 169.215 28.5765 169.389 28.5765H172.562C172.934 28.5765 173.157 28.1581 172.959 27.8381L169.637 23.1365ZM166.339 20.035H163.066C162.794 20.035 162.595 19.8134 162.595 19.5673V15.7273C162.595 15.4565 162.818 15.2596 163.066 15.2596H166.265C168.075 15.2596 169.165 16.0719 169.165 17.6473C169.165 19.075 168.124 20.035 166.339 20.035Z" fill="#484848"/>
<path d="M188.529 25.3519H180.372C180.099 25.3519 179.901 25.1303 179.901 24.8842V22.2996C179.901 22.0288 180.124 21.8319 180.372 21.8319H187.339C187.612 21.8319 187.81 21.6104 187.81 21.3642V19.0504C187.81 18.7796 187.587 18.5827 187.339 18.5827H180.372C180.099 18.5827 179.901 18.3611 179.901 18.115V15.678C179.901 15.4073 180.124 15.2104 180.372 15.2104H188.405C188.678 15.2104 188.876 14.9888 188.876 14.7427V12.4288C188.876 12.158 188.653 11.9611 188.405 11.9611H176.703C176.43 11.9611 176.231 12.1827 176.231 12.4288V28.158C176.231 28.4288 176.455 28.6257 176.703 28.6257H188.529C188.802 28.6257 189 28.4042 189 28.158V25.8442C189 25.5488 188.802 25.3519 188.529 25.3519Z" fill="#484848"/>
<path d="M22.3388 39.8256L2.42975 32.6379C0.966942 32.121 0 30.7426 0 29.1918V22.3241C0 19.7887 2.55372 18.0164 4.95868 18.8779L24.2727 25.8687C25.3884 26.2626 26.1322 27.321 26.1322 28.5272V37.1918C26.1322 39.1364 24.1736 40.5149 22.3388 39.8256Z" fill="url(#paint0_linear_1566_3783)"/>
<path d="M2.42982 23.8011L22.3389 31.0134C24.1984 31.678 26.1571 30.3241 26.1571 28.3549V19.6903C26.1571 18.5088 25.4133 17.4503 24.2976 17.0318L20.2563 15.5795L0.793457 22.6195C1.21494 23.1365 1.7604 23.5549 2.42982 23.8011Z" fill="url(#paint1_linear_1566_3783)"/>
<path d="M0 10.8288V20.355C0 21.1919 0.297521 22.0042 0.793388 22.6196L20.2314 15.5796L0.793388 8.53961C0.297521 9.17961 0 9.9673 0 10.8288Z" fill="url(#paint2_linear_1566_3783)"/>
<path d="M2.42975 7.38331C1.78512 7.62946 1.21488 8.02331 0.793389 8.54023C0.297521 9.18023 0 9.96792 0 10.8295V20.3556C0 21.1925 0.297521 22.0048 0.793389 22.6202L20.2314 15.5802L24.2727 14.1279C25.3884 13.7341 26.1322 12.6756 26.1322 11.4695V2.82946C26.1322 0.860228 24.1736 -0.493618 22.3141 0.170997L2.42975 7.38331Z" fill="url(#paint3_linear_1566_3783)"/>
<defs>
<linearGradient id="paint0_linear_1566_3783" x1="7.1679e-07" y1="29.3379" x2="26.1412" y2="29.3379" gradientUnits="userSpaceOnUse">
<stop stop-color="#BED8F8"/>
<stop offset="1" stop-color="#C3DEEE"/>
</linearGradient>
<linearGradient id="paint1_linear_1566_3783" x1="6.93648e-05" y1="23.3765" x2="26.1412" y2="23.3765" gradientUnits="userSpaceOnUse">
<stop stop-color="#2BC9F6"/>
<stop offset="1" stop-color="#48E0F7"/>
</linearGradient>
<linearGradient id="paint2_linear_1566_3783" x1="0" y1="15.5837" x2="26.1412" y2="15.5837" gradientUnits="userSpaceOnUse">
<stop stop-color="#1E81F8"/>
<stop offset="1" stop-color="#2AA6EE"/>
</linearGradient>
<linearGradient id="paint3_linear_1566_3783" x1="0" y1="11.311" x2="33.7657" y2="11.311" gradientUnits="userSpaceOnUse">
<stop stop-color="#1E81F8"/>
<stop offset="1" stop-color="#2AA6EE"/>
</linearGradient>
</defs>
</svg>
