<?xml version="1.0" encoding="UTF-8"?>
<svg xmlns="http://www.w3.org/2000/svg" width="860" height="157" viewBox="0 0 860 157" fill="none"><path d="M170.837 39.8623L137.484 109.829C136.283 112.302 134.566 114.187 132.341 115.481C130.118 116.778 127.567 117.424 124.677 117.424C121.735 117.424 119.164 116.807 116.973 115.571C114.779 114.334 113.08 112.42 111.878 109.829L78.6177 39.8623H98.5345L123.145 91.4364C123.446 92.1436 123.956 92.4955 124.677 92.4955C125.522 92.4955 126.033 92.1436 126.212 91.4364L150.911 39.8623H170.837ZM249.899 116.261H189.221C184.418 116.261 180.333 114.613 176.967 111.316C173.594 108.018 171.915 104.015 171.915 99.3026V56.8193C171.915 52.1084 173.594 48.1069 176.967 44.8086C180.333 41.512 184.418 39.8618 189.221 39.8618H249.899V56.8424H190.962C190.48 56.8424 190.073 57.0045 189.744 57.3204C189.417 57.6453 189.252 58.0422 189.252 58.5067V69.4797H249.899V86.4603H189.252V97.5155C189.252 98.0454 189.417 98.48 189.744 98.7959C190.073 99.1191 190.48 99.2823 190.962 99.2823H249.899V116.261ZM408.748 116.261H345.95L354.134 99.2823H381.7L365.11 64.601C364.742 63.953 364.238 63.6287 363.578 63.6287C362.729 63.6287 362.188 63.953 361.954 64.6066L337.347 116.261H324.267H318.317H272.242C267.425 116.261 263.34 114.613 259.979 111.316C256.614 108.018 254.925 104.015 254.925 99.3026V39.8618H272.259V97.5155C272.259 98.0454 272.426 98.48 272.754 98.7959C273.085 99.1191 273.488 99.2823 273.972 99.2823H324.267V103.755L351.588 46.3401C353.991 41.217 357.981 38.6484 363.578 38.6484C369.099 38.6484 373.074 41.217 375.486 46.3401L408.748 116.261ZM463.844 56.8435H385.846V39.8623H463.844V56.8435ZM433.556 116.261H416.223V65.3279H433.556V116.261ZM542.876 95.7926C542.876 103.618 538.82 109.416 530.697 113.192C523.973 116.313 515.018 117.873 503.829 117.873C492.289 117.873 483.363 116.459 477.053 113.626C468.938 109.977 464.881 104.03 464.881 95.7926V39.8618H482.214V94.1289C482.214 96.1975 484.181 97.779 488.11 98.9068C492.049 100.024 497.284 100.577 503.829 100.577C510.615 100.577 515.935 100.04 519.781 98.9507C523.628 97.8534 525.535 96.2493 525.535 94.1289V39.8618H542.876V95.7926ZM628.177 99.3026C628.177 103.896 626.493 107.872 623.128 111.228C619.768 114.591 615.681 116.261 610.866 116.261H550.187V99.2823H609.137C610.272 99.2823 610.842 98.7007 610.842 97.524V88.2705C610.842 87.7412 610.685 87.3139 610.353 86.9913C610.023 86.6675 609.61 86.5054 609.137 86.5054H567.49C562.681 86.5054 558.594 84.8557 555.238 81.5647C551.87 78.2608 550.187 74.2571 550.187 69.5462V56.8193C550.187 52.1084 551.87 48.1069 555.238 44.8086C558.594 41.512 562.681 39.8618 567.49 39.8618H628.177V56.8424H569.226C568.754 56.8424 568.34 57.0045 568.007 57.3204C567.68 57.6453 567.506 58.0422 567.506 58.5118V67.8537C567.506 68.3255 567.68 68.7224 568.007 69.0456C568.34 69.3711 568.754 69.531 569.226 69.531H610.866C615.681 69.531 619.768 71.1807 623.128 74.4789C626.493 77.7749 628.177 81.7792 628.177 86.4902V99.3026ZM77.982 116.261L17.3115 116.269C12.5031 116.269 8.41031 114.621 5.04573 111.323C1.67827 108.026 0 104.021 0 99.3111V56.8193C0 52.1084 1.67827 48.1131 5.04573 44.8086C8.41031 41.5188 12.5031 39.8618 17.3115 39.8618H77.982V56.8424H19.0432C18.5581 56.8424 18.1563 57.0045 17.8264 57.3294C17.4954 57.6453 17.3293 58.0422 17.3293 58.5067V69.4882L77.982 69.4797V86.4603H17.3293V97.5155C17.3293 98.0454 17.4954 98.48 17.8264 98.7959C18.1563 99.1191 18.5581 99.2823 19.0432 99.2823H77.982V116.261Z" fill="black"/><path d="M859.701 135.533C859.701 147.125 850.106 156.52 838.279 156.52H721.34C709.509 156.52 699.918 147.125 699.918 135.533V20.9849C699.918 9.39876 709.509 0 721.34 0H838.279C850.106 0 859.701 9.39876 859.701 20.9849V135.533Z" fill="#EA5E20"/><path d="M823.877 124.513H751.67C745.945 124.513 741.084 122.551 737.078 118.625C733.073 114.7 731.066 109.932 731.066 104.324V53.7571C731.066 48.1487 733.073 43.386 737.078 39.4616C741.084 35.535 745.945 33.5723 751.67 33.5723H823.877V53.7385H753.694C753.12 53.7385 752.638 53.9322 752.244 54.3145C751.849 54.7019 751.653 55.1748 751.653 55.7367V68.8769H823.877V89.0426H751.653V102.236C751.653 102.87 751.849 103.379 752.244 103.767C752.638 104.148 753.12 104.347 753.694 104.347H823.877V124.513Z" fill="#FEFEFE"/></svg>