<svg width="179" height="38" viewBox="0 0 179 38" fill="none" xmlns="http://www.w3.org/2000/svg">
<path d="M34.2214 38C37.7206 38 40.5573 35.1592 40.5573 31.6549C40.5573 28.1505 37.7206 25.3097 34.2214 25.3097C30.7222 25.3097 27.8855 28.1505 27.8855 31.6549C27.8855 35.1592 30.7222 38 34.2214 38Z" fill="#ffffff"/>
<path d="M11.7241 35.4638C14.3498 35.4638 16.4783 33.3321 16.4783 30.7026C16.4783 28.0731 14.3498 25.9414 11.7241 25.9414C9.09838 25.9414 6.96983 28.0731 6.96983 30.7026C6.96983 33.3321 9.09838 35.4638 11.7241 35.4638Z" fill="#ffffff"/>
<path d="M43.9299 0L32.9474 1.547C33.7998 7.62095 29.5749 13.2388 23.5097 14.0925C17.4446 14.9461 11.8349 10.7149 10.9825 4.64099L0 6.18182C1.70476 18.3297 12.9211 26.7951 25.0514 25.0878C37.1817 23.3806 45.6347 12.1479 43.9299 0Z" fill="#ffffff"/>
<path d="M58.7374 27.057L54.8601 21.2296V27.057H50.3274V7.91063H54.8601V19.0971L58.3835 13.3806H63.627L59.0389 20.2188L63.8178 27.057H58.7374Z" fill="#ffffff"/>
<path d="M78.219 13.3806V27.057H73.6863V25.7997C72.8124 26.8382 71.5569 27.4422 69.8091 27.4422C66.1503 27.4422 63.3901 24.3236 63.3901 20.2219C63.3901 16.1202 66.1472 13.0015 69.8091 13.0015C71.5569 13.0015 72.8124 13.6025 73.6863 14.6441V13.3867H78.219V13.3806ZM73.6863 20.2188C73.6863 18.4407 72.5108 17.2357 70.8184 17.2357C69.1259 17.2357 67.9505 18.4407 67.9505 20.2188C67.9505 21.9969 69.1259 23.2018 70.8184 23.2018C72.5108 23.2018 73.6863 21.9969 73.6863 20.2188Z" fill="#ffffff"/>
<path d="M93.6788 13.3806V27.057H89.1461V25.6888C88.3799 26.7827 87.0444 27.4391 85.3489 27.4391C82.5363 27.4391 80.3238 25.4977 80.3238 21.5593V13.3806H84.8565V20.9861C84.8565 22.4622 85.7304 23.1464 86.9059 23.1464C88.2999 23.1464 89.1461 22.2989 89.1461 20.6564V13.3806H93.6788Z" fill="#ffffff"/>
<path d="M111.139 20.2188C111.139 24.3205 108.382 27.4391 104.72 27.4391C102.972 27.4391 101.716 26.8382 100.843 25.7966V32.527H96.3098V13.3806H100.843V14.6379C101.716 13.5994 102.972 12.9954 104.72 12.9954C108.379 12.9954 111.139 16.114 111.139 20.2157V20.2188ZM106.578 20.2188C106.578 18.4407 105.403 17.2357 103.71 17.2357C102.018 17.2357 100.843 18.4407 100.843 20.2188C100.843 21.9969 102.018 23.2018 103.71 23.2018C105.403 23.2018 106.578 21.9969 106.578 20.2188Z" fill="#ffffff"/>
<path d="M111.828 23.5039L118.164 16.8012C119.229 15.6518 119.995 14.7766 119.995 13.8459C119.995 12.9153 119.395 12.2589 118.302 12.2589C117.099 12.2589 116.253 13.0508 115.736 14.2558L111.53 11.9045C112.813 8.89676 115.462 7.50077 118.25 7.50077C121.69 7.50077 124.888 9.66102 124.888 13.5716C124.888 15.9784 123.577 17.7843 121.829 19.6179L119.235 22.3267H125.217V27.0601H111.834V23.5039H111.828Z" fill="#ffffff"/>
<path d="M142.009 24.1325H140.098V27.0601H135.236V24.1325H126.851V19.6733L132.559 7.91063H137.966L132.202 19.6733H135.233V16.228H140.095V19.6733H142.006V24.1325H142.009Z" fill="#ffffff"/>
<path d="M143.228 24.5978C143.228 23.0385 144.511 21.7535 146.096 21.7535C147.68 21.7535 148.936 23.0385 148.936 24.5978C148.936 26.1572 147.653 27.4422 146.096 27.4422C144.539 27.4422 143.228 26.1849 143.228 24.5978Z" fill="#ffffff"/>
<path d="M156.973 23.5562C157.958 23.5562 158.804 23.2265 159.46 22.5978L162.737 24.8968C161.371 26.6194 159.297 27.4391 156.866 27.4391C152.139 27.4391 149.219 24.2928 149.219 20.2465C149.219 16.2003 152.222 12.9985 156.484 12.9985C160.746 12.9985 163.531 16.0894 163.531 20.1911C163.531 20.7643 163.476 21.3128 163.34 21.886H153.918C154.466 23.1988 155.666 23.5532 156.977 23.5532L156.973 23.5562ZM159.103 18.7427C158.694 17.319 157.629 16.829 156.537 16.829C155.226 16.829 154.241 17.4854 153.859 18.7427H159.103Z" fill="#ffffff"/>
<path d="M172.443 23.5562C173.424 23.5562 174.273 23.2265 174.929 22.5978L178.206 24.8968C176.84 26.6194 174.766 27.4391 172.335 27.4391C167.608 27.4391 164.688 24.2928 164.688 20.2465C164.688 16.2003 167.691 12.9985 171.953 12.9985C176.215 12.9985 179 16.0894 179 20.1911C179 20.7643 178.945 21.3128 178.809 21.886H169.387C169.932 23.1988 171.135 23.5532 172.446 23.5532L172.443 23.5562ZM174.572 18.7427C174.163 17.319 173.098 16.829 172.006 16.829C170.695 16.829 169.71 17.4854 169.328 18.7427H174.572Z" fill="#ffffff"/>
</svg>
