<svg width="180" height="38" viewBox="0 0 180 38" fill="none" xmlns="http://www.w3.org/2000/svg">
<g clip-path="url(#clip0_4803_26309)">
<path d="M166.947 12.5832C166.947 11.0105 167.654 9.59502 168.44 9.51638L172.529 11.4823L173.158 7.39318C172.765 7.15727 171.822 7 171.036 7C167.89 7 165.295 9.9882 164.666 14.6278L162.464 15.9646V16.1219H164.666V29.962L163.251 30.827V30.9842H171.429V30.827L169.541 29.962V16.1219H174.732V30.9842H179.686V14.8637H169.541C167.811 14.8637 166.947 14.0773 166.947 12.5832Z" fill="#0A7BFF"/>
<path d="M177.326 12.5046C178.978 12.5046 180 11.5609 180 10.0668C180 8.57273 178.978 7.62909 177.326 7.62909C175.675 7.62909 174.574 8.57273 174.574 10.0668C174.574 11.5609 175.675 12.5046 177.326 12.5046Z" fill="#0A7BFF"/>
<path d="M159.319 26.5806C157.667 26.5806 156.566 27.5242 156.566 29.0183C156.566 30.5124 157.588 31.4561 159.319 31.4561C160.97 31.4561 161.992 30.5124 161.992 29.0183C161.992 27.4456 160.97 26.5806 159.319 26.5806Z" fill="#0A7BFF"/>
<path d="M108.441 8.88729C111.035 8.96593 111.428 9.35912 111.428 11.8755V18.6383H102.935V11.9541C102.935 9.35912 103.329 9.04457 105.924 8.96593V7.78638H94.9152V8.88729C97.5099 8.96593 97.903 9.35912 97.903 11.8755V26.8166C97.903 29.4115 97.5888 29.6475 94.9152 29.8047V30.9056H105.924V29.8047C103.25 29.7261 102.935 29.3329 102.935 26.8166V20.0537H111.428V26.8166C111.428 29.4115 111.192 29.6475 108.441 29.8047V30.9056H119.45V29.8047C116.855 29.7261 116.462 29.4115 116.462 26.8166V11.9541C116.462 9.35912 116.855 9.04457 119.45 8.96593V7.78638H108.441V8.88729Z" fill="#0A7BFF"/>
<path d="M152.398 28.7038V7.78638H145.085V8.57275H146.5C147.13 8.57275 147.602 9.04457 147.602 9.67366V28.6251C147.602 29.4902 146.894 30.1193 146.107 30.1193H145.085V30.9056H154.994V30.1193H153.971C153.106 30.1979 152.398 29.4902 152.398 28.7038Z" fill="#0A7BFF"/>
<path d="M34.5216 15.5714C33.1848 14.7851 31.6906 14.3919 30.1179 14.3919C28.4666 14.3919 27.0511 14.7851 25.7143 15.5714C24.3774 16.3578 23.2765 17.3801 22.4901 18.7169C21.7037 20.0537 21.3105 21.4692 21.3105 23.0419C21.3105 24.6147 21.7037 26.0302 22.4901 27.367C23.2765 28.7038 24.3774 29.7261 25.7143 30.5124C27.0511 31.2988 28.5452 31.692 30.1179 31.692C31.7693 31.692 33.1848 31.2988 34.5216 30.5124C35.8584 29.7261 36.9593 28.7038 37.7456 27.367C38.532 26.0302 38.9252 24.6147 38.9252 23.0419C38.9252 21.4692 38.532 20.0537 37.7456 18.7169C36.9593 17.3801 35.8584 16.3578 34.5216 15.5714ZM32.9488 26.266C32.1624 27.131 31.2188 27.5242 30.1179 27.5242C28.9384 27.5242 27.9947 27.131 27.287 26.266C26.5006 25.4011 26.1861 24.3787 26.1861 23.0419C26.1861 21.7838 26.5793 20.6828 27.287 19.8179C28.0734 18.9528 29.017 18.5596 30.1179 18.5596C31.2975 18.5596 32.2411 18.9528 32.9488 19.8179C33.7352 20.6828 34.0498 21.7051 34.0498 23.0419C34.0498 24.3001 33.7352 25.4011 32.9488 26.266Z" fill="#0A7BFF"/>
<path d="M135.571 8.65138H136.75L137.457 9.28048V29.5689L136.75 30.1979H135.571V30.9843H144.063V30.1979H142.805L142.175 29.5689V9.28048L142.805 8.65138H144.063V7.78638H135.571V8.65138Z" fill="#0A7BFF"/>
<path d="M134.233 20.5256C134.233 16.4364 130.93 14.6278 127.235 14.6278C122.988 14.6278 120.393 16.9082 119.843 19.7392H124.718C124.561 18.3237 125.347 17.3801 127.077 17.3801C128.807 17.3801 129.751 18.481 129.829 20.6042V21.941C128.65 21.6265 127.077 21.3906 125.583 21.4692C122.28 21.5478 119.607 23.3565 119.607 26.502C119.607 29.5689 121.573 31.4561 124.797 31.4561C126.762 31.4561 128.257 30.6697 129.672 29.2543H129.908C129.908 29.962 129.908 30.5911 129.751 31.0629H134.312C134.233 30.4338 134.233 29.4115 134.233 28.7038V20.5256ZM129.908 26.502C129.279 27.4456 128.178 28.3893 126.527 28.3893C124.954 28.3893 124.168 27.4456 124.168 26.2661C124.168 24.9293 125.111 23.9856 126.841 23.9069C127.864 23.9069 128.886 23.9856 129.908 24.2215V26.502Z" fill="#0A7BFF"/>
<path d="M51.35 14.5492C48.3618 14.5492 47.3394 15.8073 46.1599 17.6946H45.924V7.78638H39.3185V11.0891H41.1271V27.6815H39.3185V30.9843H45.6095V28.1533H45.8454C47.1036 30.0406 48.3618 31.2988 51.35 31.2988C54.3381 31.2988 58.4273 28.3106 58.4273 22.8847C58.4273 17.5374 54.2595 14.5492 51.35 14.5492ZM52.4508 26.1874C51.6645 27.0524 50.7209 27.4456 49.6199 27.4456C48.4404 27.4456 47.4968 27.0524 46.789 26.1874C46.0026 25.3224 45.6881 24.3001 45.6881 22.9633C45.6881 21.7052 46.0813 20.6042 46.789 19.7392C47.5754 18.8742 48.519 18.481 49.6199 18.481C50.7995 18.481 51.7432 18.8742 52.4508 19.7392C53.2372 20.6042 53.5518 21.6264 53.5518 22.9633C53.5518 24.2215 53.1586 25.3224 52.4508 26.1874Z" fill="#0A7BFF"/>
<path d="M76.6711 18.7169C75.9633 17.4588 75.0197 16.4364 73.7615 15.6501C72.5819 14.9423 71.2451 14.5492 69.751 14.5492C68.7287 14.5492 67.7851 14.7064 66.9987 15.0996C66.1337 15.4928 65.5832 15.9646 65.2687 16.515V7.78638H58.1127L60.4718 9.98821V28.8611L58.1127 31.0629H64.9542V29.4115C65.3474 30.0406 65.9764 30.5124 66.9201 30.827C67.7851 31.2202 68.7287 31.3774 69.8296 31.3774C71.3237 31.3774 72.6606 30.9843 73.8401 30.2765C75.0197 29.5688 76.042 28.5465 76.7497 27.2097C77.4575 25.9515 77.8506 24.5361 77.8506 22.9633C77.772 21.3906 77.3788 19.9751 76.6711 18.7169ZM71.8742 26.1874C71.0878 27.0524 70.1442 27.4456 69.0433 27.4456C67.8637 27.4456 66.9201 27.0524 66.2123 26.1874C65.426 25.3224 65.1114 24.3001 65.1114 22.9633C65.1114 21.7052 65.5046 20.6042 66.2123 19.7392C66.9987 18.8742 67.9423 18.481 69.0433 18.481C70.2228 18.481 71.1665 18.8742 71.8742 19.7392C72.6606 20.6042 72.9751 21.6264 72.9751 22.9633C72.9751 24.2215 72.5819 25.3224 71.8742 26.1874Z" fill="#0A7BFF"/>
<path d="M14.1546 18.7955H5.58323V7.78638H0V30.9843H5.58323V19.5819H14.1546V30.9843H19.7378V7.78638H14.1546V18.7955Z" fill="#0A7BFF"/>
<path d="M96.3306 14.8637H88.6237V15.4928C91.6905 15.7287 92.2415 18.2451 90.7472 21.6264L88.6237 26.6592L85.3998 20.1324C83.7484 16.8296 83.9844 15.6501 87.6014 15.4928V14.8637H76.1993V15.4928C77.772 15.5714 78.0866 16.5937 79.6593 19.8178L86.1861 32.7929C85.0848 35.2307 84.2202 35.9384 83.198 35.9384C81.9398 35.9384 81.3893 34.6802 81.3893 33.2647C81.3893 32.557 81.5466 31.8492 81.7825 31.1416C78.9516 30.9842 77.3788 32.7143 77.3788 34.3657C77.3788 35.7811 78.637 37.1966 81.2321 37.1966C85.0848 37.1966 86.1079 34.6802 87.2873 31.9279L91.4544 21.7051C93.1059 17.6946 95.0723 15.9646 96.3306 15.4928V14.8637Z" fill="#0A7BFF"/>
</g>
<defs>
<clipPath id="clip0_4803_26309">
<rect width="180" height="30.566" fill="white" transform="translate(0 7)"/>
</clipPath>
</defs>
</svg>
