<svg width="128" height="38" viewBox="0 0 128 38" fill="none" xmlns="http://www.w3.org/2000/svg">
<g clip-path="url(#clip0_3375_24118)">
<g clip-path="url(#clip1_3375_24118)">
<path d="M34.2135 38C37.712 38 40.548 35.1592 40.548 31.6549C40.548 28.1505 37.712 25.3097 34.2135 25.3097C30.7151 25.3097 27.8791 28.1505 27.8791 31.6549C27.8791 35.1592 30.7151 38 34.2135 38Z" fill="#0A7BFF"/>
<path d="M11.7214 35.4638C14.3465 35.4638 16.4745 33.3321 16.4745 30.7026C16.4745 28.0731 14.3465 25.9414 11.7214 25.9414C9.09629 25.9414 6.96823 28.0731 6.96823 30.7026C6.96823 33.3321 9.09629 35.4638 11.7214 35.4638Z" fill="#0A7BFF"/>
<path d="M64.9537 18.9337C64.9537 23.0385 62.1941 26.1572 58.5362 26.1572C56.7887 26.1572 55.5305 25.5562 54.6567 24.5146V31.245H50.122V12.0955H54.6567V13.3529C55.5305 12.3143 56.7857 11.7103 58.5362 11.7103C62.1972 11.7103 64.9537 14.829 64.9537 18.9337ZM60.3913 18.9337C60.3913 17.1556 59.2161 15.9507 57.524 15.9507C55.8319 15.9507 54.6567 17.1556 54.6567 18.9337C54.6567 20.7119 55.8319 21.9168 57.524 21.9168C59.2161 21.9168 60.3913 20.7119 60.3913 18.9337Z" fill="#0A7BFF"/>
<path d="M66.1874 8.34515C66.1874 6.92142 67.3903 5.7473 68.8085 5.7473C70.2268 5.7473 71.4297 6.9245 71.4297 8.34515C71.4297 9.76579 70.2268 10.9707 68.8085 10.9707C67.3903 10.9707 66.1874 9.76579 66.1874 8.34515ZM66.5412 12.0925H71.0759V25.772H66.5412V12.0925Z" fill="#0A7BFF"/>
<path d="M87.5535 25.2234C87.5535 29.7935 83.9479 31.6518 80.3699 31.6518C77.3919 31.6518 74.8815 30.53 73.6509 28.3143L77.4196 26.1263C78.0195 27.0847 78.8409 27.6857 80.3146 27.6857C81.7882 27.6857 83.0742 26.9183 83.0742 25.2234V23.9106C82.2005 24.9769 80.9453 25.6055 79.2501 25.6055C75.4537 25.6055 72.7495 22.4592 72.7495 18.6564C72.7495 14.8536 75.4537 11.7072 79.2501 11.7072C80.9422 11.7072 82.2005 12.3359 83.0742 13.4022V12.0894H87.5535V25.2234ZM83.0742 18.6595C83.0742 17.0169 81.899 15.8151 80.1792 15.8151C78.4594 15.8151 77.2842 17.02 77.2842 18.6595C77.2842 20.2989 78.4594 21.5039 80.1792 21.5039C81.899 21.5039 83.0742 20.2989 83.0742 18.6595Z" fill="#0A7BFF"/>
<path d="M102.991 12.0925V25.772H98.4566V24.4037C97.6905 25.4977 96.3523 26.1541 94.6602 26.1541C91.8483 26.1541 89.6363 24.2126 89.6363 20.2712V12.0925H94.171V19.698C94.171 21.1741 95.0448 21.8582 96.22 21.8582C97.6136 21.8582 98.4596 21.0108 98.4596 19.3683V12.0925H102.994H102.991Z" fill="#0A7BFF"/>
<path d="M105.019 23.3097C105.019 21.7504 106.302 20.4653 107.886 20.4653C109.47 20.4653 110.726 21.7504 110.726 23.3097C110.726 24.869 109.443 26.1541 107.886 26.1541C106.329 26.1541 105.019 24.8968 105.019 23.3097Z" fill="#0A7BFF"/>
<path d="M112.753 5.80277H117.288V25.772H112.753V5.80277Z" fill="#0A7BFF"/>
<path d="M125.16 16.4438V20.4099C125.16 21.6949 126.169 21.7781 128 21.6672V25.772C122.428 26.4561 120.626 24.7334 120.626 20.5208V16.4438H118.577V12.0955H120.626V9.63328L125.16 8.26502V12.0955H128V16.4438H125.16Z" fill="#0A7BFF"/>
<path d="M43.9198 0L32.9399 1.547C33.792 7.62095 29.568 13.2388 23.5043 14.0925C17.4406 14.9461 11.8321 10.7149 10.98 4.64099L0 6.18182C1.70437 18.3297 12.9181 26.7951 25.0456 25.0878C37.1731 23.3806 45.6242 12.1479 43.9198 0Z" fill="#0A7BFF"/>
</g>
</g>
<defs>
<clipPath id="clip0_3375_24118">
<rect width="128" height="38" fill="#0A7BFF"/>
</clipPath>
<clipPath id="clip1_3375_24118">
<rect width="128" height="38" fill="#0A7BFF"/>
</clipPath>
</defs>
</svg>
