<svg width="125" height="38" viewBox="0 0 125 38" fill="#ffffff" xmlns="http://www.w3.org/2000/svg">
<path d="M34.3359 38C37.8469 38 40.6931 35.1592 40.6931 31.6549C40.6931 28.1505 37.8469 25.3097 34.3359 25.3097C30.825 25.3097 27.9788 28.1505 27.9788 31.6549C27.9788 35.1592 30.825 38 34.3359 38Z" fill="#ffffff"/>
<path d="M11.7633 35.4638C14.3978 35.4638 16.5335 33.3321 16.5335 30.7026C16.5335 28.0731 14.3978 25.9414 11.7633 25.9414C9.12883 25.9414 6.99316 28.0731 6.99316 30.7026C6.99316 33.3321 9.12883 35.4638 11.7633 35.4638Z" fill="#ffffff"/>
<path d="M44.077 0L33.0577 1.547C33.913 7.62095 29.6738 13.2388 23.5884 14.0925C17.503 14.9461 11.8745 10.7149 11.0192 4.64099L0 6.18182C1.71047 18.3297 12.9644 26.7951 25.1352 25.0878C37.3061 23.3806 45.7874 12.1479 44.077 0Z" fill="0A7BFF"/>
<path d="M50.8262 25.0015L57.1741 18.3082C58.2424 17.1618 59.0081 16.2866 59.0081 15.359C59.0081 14.4314 58.406 13.775 57.3099 13.775C56.1058 13.775 55.2568 14.567 54.7381 15.7689L50.5236 13.4206C51.8111 10.416 54.4633 9.02311 57.2544 9.02311C60.7031 9.02311 63.9048 11.1803 63.9048 15.0878C63.9048 17.4915 62.5926 19.2943 60.8389 21.1248L58.2393 23.8274H64.2321V28.5516H50.8231V25.0015H50.8262Z" fill="#ffffff"/>
<path d="M65.8839 25.0015L72.2318 18.3082C73.3 17.1618 74.0657 16.2866 74.0657 15.359C74.0657 14.4314 73.4637 13.775 72.3676 13.775C71.1635 13.775 70.3144 14.567 69.7957 15.7689L65.5813 13.4206C66.8688 10.416 69.521 9.02311 72.312 9.02311C75.7608 9.02311 78.9625 11.1803 78.9625 15.0878C78.9625 17.4915 77.6503 19.2943 75.8966 21.1248L73.2969 23.8274H79.2898V28.5516H65.8808V25.0015H65.8839Z" fill="#ffffff"/>
<path d="M80.1481 18.9923C80.1481 13.0663 82.9947 9.02311 88.0829 9.02311C93.1711 9.02311 96.0178 13.0663 96.0178 18.9923C96.0178 24.9183 93.1711 28.9615 88.0829 28.9615C82.9947 28.9615 80.1481 24.9183 80.1481 18.9923ZM91.121 18.9923C91.121 15.5223 90.1361 13.775 88.0829 13.775C86.0297 13.775 85.0448 15.5223 85.0448 18.9923C85.0448 22.4622 86.0297 24.2096 88.0829 24.2096C90.1361 24.2096 91.121 22.4622 91.121 18.9923Z" fill="#ffffff"/>
<path d="M96.6013 26.0924C96.6013 24.5362 97.8888 23.2512 99.4758 23.2512C101.063 23.2512 102.322 24.5362 102.322 26.0924C102.322 27.6487 101.035 28.9337 99.4758 28.9337C97.9166 28.9337 96.6013 27.6764 96.6013 26.0924Z" fill="#ffffff"/>
<path d="M104.354 8.61325H108.896V28.5516H104.354V8.61325Z" fill="#ffffff"/>
<path d="M124.997 14.8937L119.881 28.5516H114.956L109.84 14.8937H114.876L117.42 22.7334L119.964 14.8937H125H124.997Z" fill="#ffffff"/>
</svg>
