<?xml version="1.0" encoding="utf-8"?>
<!-- Generator: Adobe Illustrator 27.5.0, SVG Export Plug-In . SVG Version: 6.00 Build 0)  -->
<svg version="1.1" id="Layer_1" xmlns="http://www.w3.org/2000/svg" xmlns:xlink="http://www.w3.org/1999/xlink" x="0px" y="0px"
	 viewBox="0 0 7000 4081" style="enable-background:new 0 0 7000 4081;" xml:space="preserve">
<g>
	<rect style="fill-rule:evenodd;clip-rule:evenodd;fill:#102770;" width="7000" height="4081"/>
	<g>
		<defs>
			<path id="SVGID_1_" d="M643.922,0H0v4081h6024.954c-333.383-904.38-872.599-2017.448-1911.747-2017.448
				c-1009.417,0-1352.674,610.305-1948.579,610.305c-532.403,0-964-422.329-964-943.296C1200.628,779.978,949.281,269.712,643.922,0
				"/>
		</defs>
		<clipPath id="SVGID_00000076589877460193341830000011398364070369639564_">
			<use xlink:href="#SVGID_1_"  style="overflow:visible;"/>
		</clipPath>
		
			<linearGradient id="SVGID_00000106139481098588059800000006453932138164516760_" gradientUnits="userSpaceOnUse" x1="3470.5928" y1="929.3322" x2="1918.5219" y2="4693.9043">
			<stop  offset="0" style="stop-color:#11BFAB"/>
			<stop  offset="0.5" style="stop-color:#121BD6"/>
			<stop  offset="1" style="stop-color:#D357F9"/>
		</linearGradient>
		
			<rect style="clip-path:url(#SVGID_00000076589877460193341830000011398364070369639564_);fill:url(#SVGID_00000106139481098588059800000006453932138164516760_);" width="6024.954" height="4081"/>
	</g>
	<g>
		<defs>
			<path id="SVGID_00000021816676658658721230000001865716622844531638_" d="M0,693.245V4081h5418.969
				c-341.306-704.582-841.99-1345.943-1630.78-1345.943c-1009.417,0-1352.674,610.307-1948.578,610.307
				c-532.403,0-964-422.329-964-943.298C875.611,1403.278,791.897,810.899,0,693.245"/>
		</defs>
		<clipPath id="SVGID_00000031919016082964151750000014441792000405434556_">
			<use xlink:href="#SVGID_00000021816676658658721230000001865716622844531638_"  style="overflow:visible;"/>
		</clipPath>
		
			<linearGradient id="SVGID_00000114042065308303556970000009995832532240286848_" gradientUnits="userSpaceOnUse" x1="3635.0496" y1="1441.859" x2="156.0262" y2="4994.9263">
			<stop  offset="0" style="stop-color:#11BFAB"/>
			<stop  offset="0.5" style="stop-color:#114CD6"/>
			<stop  offset="1" style="stop-color:#D357F9"/>
		</linearGradient>
		
			<rect y="693.245" style="clip-path:url(#SVGID_00000031919016082964151750000014441792000405434556_);fill:url(#SVGID_00000114042065308303556970000009995832532240286848_);" width="5418.969" height="3387.754"/>
	</g>
	<g>
		<defs>
			<path id="SVGID_00000032613997714217906230000000911199414600216717_" d="M2243.511,2371.993
				c825.017,0,1493.825,668.774,1493.825,1493.75c0,73.098-5.25,144.969-15.395,215.257H765.081H587.679
				c-232.349-263.306-485.832-667.366-485.832-1056.653c0-389.284,244.586-900.431,525.404-962.274
				C1277.533,2638.727,1614.497,2371.993,2243.511,2371.993"/>
		</defs>
		<clipPath id="SVGID_00000113335264097704771640000000404862527597933981_">
			<use xlink:href="#SVGID_00000032613997714217906230000000911199414600216717_"  style="overflow:visible;"/>
		</clipPath>
		
			<linearGradient id="SVGID_00000175293402216323126870000014321783896655803542_" gradientUnits="userSpaceOnUse" x1="3081.4363" y1="1964.6664" x2="-650.604" y2="5520.1177">
			<stop  offset="0" style="stop-color:#11BFAB"/>
			<stop  offset="0.5" style="stop-color:#114CD6"/>
			<stop  offset="1" style="stop-color:#D357F9"/>
		</linearGradient>
		
			<rect x="101.847" y="2062.073" style="clip-path:url(#SVGID_00000113335264097704771640000000404862527597933981_);fill:url(#SVGID_00000175293402216323126870000014321783896655803542_);" width="3635.489" height="2018.927"/>
	</g>
	<g>
		<defs>
			<path id="SVGID_00000056394724699235745270000002281426494024548012_" d="M2143.508,3197.001
				c498.493,0,905.511,391.64,930.119,883.999H1213.387H0v-583.539V1332.839c486.262,119.961,846.846,559.029,846.846,1082.312
				c0,288.898-75.743,334.971-150.113,559.041c-101.948,307.149,126.031,630.567,455.147,630.567
				C1515.079,3604.759,1587.713,3197.001,2143.508,3197.001"/>
		</defs>
		<clipPath id="SVGID_00000120546824438120274840000017894152620382230434_">
			<use xlink:href="#SVGID_00000056394724699235745270000002281426494024548012_"  style="overflow:visible;"/>
		</clipPath>
		
			<linearGradient id="SVGID_00000155845751889003920930000015125556125322068895_" gradientUnits="userSpaceOnUse" x1="1556.0741" y1="2679.9121" x2="-33.045" y2="4908.1704">
			<stop  offset="0" style="stop-color:#11BFAB"/>
			<stop  offset="0.5" style="stop-color:#4575E6"/>
			<stop  offset="1" style="stop-color:#D357F9"/>
		</linearGradient>
		
			<rect y="1332.839" style="clip-path:url(#SVGID_00000120546824438120274840000017894152620382230434_);fill:url(#SVGID_00000155845751889003920930000015125556125322068895_);" width="3073.626" height="2748.161"/>
	</g>
</g>
</svg>
