<svg xmlns="http://www.w3.org/2000/svg" viewBox="0 0 1440 525" preserveAspectRatio="xMidYMid" width="1440" height="525" xmlns:xlink="http://www.w3.org/1999/xlink" style="shape-rendering:auto;display:block;background-position-x:0%;background-position-y:0%;background-size:auto;background-origin:padding-box;background-clip:border-box;fill:rgb(0, 0, 0);stroke:none;transform:none;opacity:1;background:scroll rgba(0, 0, 0, 0) none  repeat;width:1440px;height:525px;;animation:none"><g style="transform:matrix(1, 0, 0, -1, 0, 525);fill:rgb(0, 0, 0);stroke:none;opacity:1;;animation:none"><g transform="matrix(0.9659258127212524,0.258819043636322,-0.258819043636322,0.9659258127212524,92.47340393066406,-124.90524291992188)" style="fill:rgb(0, 0, 0);stroke:none;transform:none;opacity:1;;animation:none"><path stroke-width="2" stroke-opacity="0" stroke="rgb(0, 77, 115)" fill="none" d="M -360 -131.5 C 0 -131.5 360 131.5 720 131.5 C 1080 131.5 1440 -131.5 1800 -131.5 C 2160 -131.5 2520 131.5 2880 131.5 C 3240 131.5 3600 -131.5 3960 -131.5" transform="matrix(1,0,0,1,0,0)" style="fill:none;stroke:rgb(0, 77, 115);transform:none;opacity:1;;animation:none"></path></g>
<g transform="matrix(0.9659258127212524,0.258819043636322,-0.258819043636322,0.9659258127212524,92.47340393066406,293.82476806640625)" style="fill:rgb(0, 0, 0);stroke:none;transform:none;opacity:1;;animation:none"><path stroke-width="2" stroke-opacity="0" stroke="rgb(0, 77, 115)" fill="none" d="M -360 -131.453 C 0 -131.453 360 131.453 720 131.453 C 1080 131.453 1440 -131.453 1800 -131.453 C 2160 -131.453 2520 131.453 2880 131.453 C 3240 131.453 3600 -131.453 3960 -131.453" transform="matrix(1,0,0,1,-12.484800338745117,0)" style="fill:none;stroke:rgb(0, 77, 115);transform:none;opacity:1;;animation:none"></path></g>
<g transform="matrix(0.9659258127212524,0.258819043636322,-0.258819043636322,0.9659258127212524,92.47340393066406,-122.375244140625)" style="fill:rgb(0, 0, 0);stroke:none;transform:none;opacity:1;;animation:none"><path stroke-width="2" stroke-opacity="0" stroke="rgb(0, 77, 115)" fill="none" d="M -360 -131.309 C 0 -131.309 360 131.309 720 131.309 C 1080 131.309 1440 -131.309 1800 -131.309 C 2160 -131.309 2520 131.309 2880 131.309 C 3240 131.309 3600 -131.309 3960 -131.309" transform="matrix(1,0,0,1,-24.969600677490234,0)" style="fill:none;stroke:rgb(0, 77, 115);transform:none;opacity:1;;animation:none"></path></g>
<g transform="matrix(0.9659258127212524,0.258819043636322,-0.258819043636322,0.9659258127212524,92.47340393066406,291.2947692871094)" style="fill:rgb(0, 0, 0);stroke:none;transform:none;opacity:1;;animation:none"><path stroke-width="2" stroke-opacity="0" stroke="rgb(0, 77, 115)" fill="none" d="M -360 -131.065 C 0 -131.065 360 131.065 720 131.065 C 1080 131.065 1440 -131.065 1800 -131.065 C 2160 -131.065 2520 131.065 2880 131.065 C 3240 131.065 3600 -131.065 3960 -131.065" transform="matrix(1,0,0,1,-37.45439910888672,0)" style="fill:none;stroke:rgb(0, 77, 115);transform:none;opacity:1;;animation:none"></path></g>
<g transform="matrix(0.9659258127212524,0.258819043636322,-0.258819043636322,0.9659258127212524,92.47340393066406,-119.8452377319336)" style="fill:rgb(0, 0, 0);stroke:none;transform:none;opacity:1;;animation:none"><path stroke-width="2" stroke-opacity="0" stroke="rgb(0, 77, 115)" fill="none" d="M -360 -130.717 C 0 -130.717 360 130.717 720 130.717 C 1080 130.717 1440 -130.717 1800 -130.717 C 2160 -130.717 2520 130.717 2880 130.717 C 3240 130.717 3600 -130.717 3960 -130.717" transform="matrix(1,0,0,1,-49.982398986816406,0)" style="fill:none;stroke:rgb(0, 77, 115);transform:none;opacity:1;;animation:none"></path></g>
<g transform="matrix(0.9659258127212524,0.258819043636322,-0.258819043636322,0.9659258127212524,92.47340393066406,288.7647705078125)" style="fill:rgb(0, 0, 0);stroke:none;transform:none;opacity:1;;animation:none"><path stroke-width="2" stroke-opacity="0" stroke="rgb(0, 77, 115)" fill="none" d="M -360 -130.264 C 0 -130.264 360 130.264 720 130.264 C 1080 130.264 1440 -130.264 1800 -130.264 C 2160 -130.264 2520 130.264 2880 130.264 C 3240 130.264 3600 -130.264 3960 -130.264" transform="matrix(1,0,0,1,-62.467201232910156,0)" style="fill:none;stroke:rgb(0, 77, 115);transform:none;opacity:1;;animation:none"></path></g>
<g transform="matrix(0.9659258127212524,0.258819043636322,-0.258819043636322,0.9659258127212524,92.47340393066406,-117.31523895263672)" style="fill:rgb(0, 0, 0);stroke:none;transform:none;opacity:1;;animation:none"><path stroke-width="2" stroke-opacity="0" stroke="rgb(0, 77, 115)" fill="none" d="M -360 -129.701 C 0 -129.701 360 129.701 720 129.701 C 1080 129.701 1440 -129.701 1800 -129.701 C 2160 -129.701 2520 129.701 2880 129.701 C 3240 129.701 3600 -129.701 3960 -129.701" transform="matrix(1,0,0,1,-74.9520034790039,0)" style="fill:none;stroke:rgb(0, 77, 115);transform:none;opacity:1;;animation:none"></path></g>
<g transform="matrix(0.9659258127212524,0.258819043636322,-0.258819043636322,0.9659258127212524,92.47340393066406,286.2347717285156)" style="fill:rgb(0, 0, 0);stroke:none;transform:none;opacity:1;;animation:none"><path stroke-width="2" stroke-opacity="0" stroke="rgb(0, 77, 115)" fill="none" d="M -360 -129.025 C 0 -129.025 360 129.025 720 129.025 C 1080 129.025 1440 -129.025 1800 -129.025 C 2160 -129.025 2520 129.025 2880 129.025 C 3240 129.025 3600 -129.025 3960 -129.025" transform="matrix(1,0,0,1,-87.43679809570312,0)" style="fill:none;stroke:rgb(0, 77, 115);transform:none;opacity:1;;animation:none"></path></g>
<g transform="matrix(0.9659258127212524,0.258819043636322,-0.258819043636322,0.9659258127212524,92.47340393066406,-114.78524017333984)" style="fill:rgb(0, 0, 0);stroke:none;transform:none;opacity:1;;animation:none"><path stroke-width="2" stroke-opacity="0" stroke="rgb(0, 77, 115)" fill="none" d="M -360 -128.232 C 0 -128.232 360 128.232 720 128.232 C 1080 128.232 1440 -128.232 1800 -128.232 C 2160 -128.232 2520 128.232 2880 128.232 C 3240 128.232 3600 -128.232 3960 -128.232" transform="matrix(1,0,0,1,-99.92160034179688,0)" style="fill:none;stroke:rgb(0, 77, 115);transform:none;opacity:1;;animation:none"></path></g>
<g transform="matrix(0.9659258127212524,0.258819043636322,-0.258819043636322,0.9659258127212524,92.47340393066406,283.7047424316406)" style="fill:rgb(0, 0, 0);stroke:none;transform:none;opacity:1;;animation:none"><path stroke-width="2" stroke-opacity="0" stroke="rgb(0, 77, 115)" fill="none" d="M -360 -127.318 C 0 -127.318 360 127.318 720 127.318 C 1080 127.318 1440 -127.318 1800 -127.318 C 2160 -127.318 2520 127.318 2880 127.318 C 3240 127.318 3600 -127.318 3960 -127.318" transform="matrix(1,0,0,1,-112.40640258789062,0)" style="fill:none;stroke:rgb(0, 77, 115);transform:none;opacity:1;;animation:none"></path></g>
<g transform="matrix(0.9659258127212524,0.258819043636322,-0.258819043636322,0.9659258127212524,92.47340393066406,-112.25524139404297)" style="fill:rgb(0, 0, 0);stroke:none;transform:none;opacity:1;;animation:none"><path stroke-width="2" stroke-opacity="0" stroke="rgb(0, 77, 115)" fill="none" d="M -360 -126.276 C 0 -126.276 360 126.276 720 126.276 C 1080 126.276 1440 -126.276 1800 -126.276 C 2160 -126.276 2520 126.276 2880 126.276 C 3240 126.276 3600 -126.276 3960 -126.276" transform="matrix(1,0,0,1,-124.93440246582031,0)" style="fill:none;stroke:rgb(0, 77, 115);transform:none;opacity:1;;animation:none"></path></g>
<g transform="matrix(0.9659258127212524,0.258819043636322,-0.258819043636322,0.9659258127212524,92.47340393066406,281.17474365234375)" style="fill:rgb(0, 0, 0);stroke:none;transform:none;opacity:1;;animation:none"><path stroke-width="2" stroke-opacity="0" stroke="rgb(0, 77, 115)" fill="none" d="M -360 -125.109 C 0 -125.109 360 125.109 720 125.109 C 1080 125.109 1440 -125.109 1800 -125.109 C 2160 -125.109 2520 125.109 2880 125.109 C 3240 125.109 3600 -125.109 3960 -125.109" transform="matrix(1,0,0,1,-137.41920471191406,0)" style="fill:none;stroke:rgb(0, 77, 115);transform:none;opacity:1;;animation:none"></path></g>
<g transform="matrix(0.9659258127212524,0.258819043636322,-0.258819043636322,0.9659258127212524,92.47340393066406,-109.7252426147461)" style="fill:rgb(0, 0, 0);stroke:none;transform:none;opacity:1;;animation:none"><path stroke-width="2" stroke-opacity="0" stroke="rgb(0, 77, 115)" fill="none" d="M -360 -123.809 C 0 -123.809 360 123.809 720 123.809 C 1080 123.809 1440 -123.809 1800 -123.809 C 2160 -123.809 2520 123.809 2880 123.809 C 3240 123.809 3600 -123.809 3960 -123.809" transform="matrix(1,0,0,1,-149.9040069580078,0)" style="fill:none;stroke:rgb(0, 77, 115);transform:none;opacity:1;;animation:none"></path></g>
<g transform="matrix(0.9659258127212524,0.258819043636322,-0.258819043636322,0.9659258127212524,92.47340393066406,278.6447448730469)" style="fill:rgb(0, 0, 0);stroke:none;transform:none;opacity:1;;animation:none"><path stroke-width="2" stroke-opacity="0" stroke="rgb(0, 77, 115)" fill="none" d="M -360 -122.372 C 0 -122.372 360 122.372 720 122.372 C 1080 122.372 1440 -122.372 1800 -122.372 C 2160 -122.372 2520 122.372 2880 122.372 C 3240 122.372 3600 -122.372 3960 -122.372" transform="matrix(1,0,0,1,-162.3887939453125,0)" style="fill:none;stroke:rgb(0, 77, 115);transform:none;opacity:1;;animation:none"></path></g>
<g transform="matrix(0.9659258127212524,0.258819043636322,-0.258819043636322,0.9659258127212524,92.47340393066406,-107.19524383544922)" style="fill:rgb(0, 0, 0);stroke:none;transform:none;opacity:1;;animation:none"><path stroke-width="2" stroke-opacity="0" stroke="rgb(0, 77, 115)" fill="none" d="M -360 -120.793 C 0 -120.793 360 120.793 720 120.793 C 1080 120.793 1440 -120.793 1800 -120.793 C 2160 -120.793 2520 120.793 2880 120.793 C 3240 120.793 3600 -120.793 3960 -120.793" transform="matrix(1,0,0,1,-174.87359619140625,0)" style="fill:none;stroke:rgb(0, 77, 115);transform:none;opacity:1;;animation:none"></path></g>
<g transform="matrix(0.9659258127212524,0.258819043636322,-0.258819043636322,0.9659258127212524,92.47340393066406,276.11474609375)" style="fill:rgb(0, 0, 0);stroke:none;transform:none;opacity:1;;animation:none"><path stroke-width="2" stroke-opacity="0" stroke="rgb(0, 77, 115)" fill="none" d="M -360 -119.069 C 0 -119.069 360 119.069 720 119.069 C 1080 119.069 1440 -119.069 1800 -119.069 C 2160 -119.069 2520 119.069 2880 119.069 C 3240 119.069 3600 -119.069 3960 -119.069" transform="matrix(1,0,0,1,-187.3583984375,0)" style="fill:none;stroke:rgb(0, 77, 115);transform:none;opacity:1;;animation:none"></path></g>
<g transform="matrix(0.9659258127212524,0.258819043636322,-0.258819043636322,0.9659258127212524,92.47340393066406,-104.66524505615234)" style="fill:rgb(0, 0, 0);stroke:none;transform:none;opacity:1;;animation:none"><path stroke-width="2" stroke-opacity="0" stroke="rgb(0, 77, 115)" fill="none" d="M -360 -117.188 C 0 -117.188 360 117.188 720 117.188 C 1080 117.188 1440 -117.188 1800 -117.188 C 2160 -117.188 2520 117.188 2880 117.188 C 3240 117.188 3600 -117.188 3960 -117.188" transform="matrix(1,0,0,1,-199.8863983154297,0)" style="fill:none;stroke:rgb(0, 77, 115);transform:none;opacity:1;;animation:none"></path></g>
<g transform="matrix(0.9659258127212524,0.258819043636322,-0.258819043636322,0.9659258127212524,92.47340393066406,273.5847473144531)" style="fill:rgb(0, 0, 0);stroke:none;transform:none;opacity:1;;animation:none"><path stroke-width="2" stroke-opacity="0" stroke="rgb(0, 77, 115)" fill="none" d="M -360 -115.158 C 0 -115.158 360 115.158 720 115.158 C 1080 115.158 1440 -115.158 1800 -115.158 C 2160 -115.158 2520 115.158 2880 115.158 C 3240 115.158 3600 -115.158 3960 -115.158" transform="matrix(1,0,0,1,-212.37120056152344,0)" style="fill:none;stroke:rgb(0, 77, 115);transform:none;opacity:1;;animation:none"></path></g>
<g transform="matrix(0.9659258127212524,0.258819043636322,-0.258819043636322,0.9659258127212524,92.47340393066406,-102.13524627685547)" style="fill:rgb(0, 0, 0);stroke:none;transform:none;opacity:1;;animation:none"><path stroke-width="2" stroke-opacity="0" stroke="rgb(0, 77, 115)" fill="none" d="M -360 -112.968 C 0 -112.968 360 112.968 720 112.968 C 1080 112.968 1440 -112.968 1800 -112.968 C 2160 -112.968 2520 112.968 2880 112.968 C 3240 112.968 3600 -112.968 3960 -112.968" transform="matrix(1,0,0,1,-224.8560028076172,0)" style="fill:none;stroke:rgb(0, 77, 115);transform:none;opacity:1;;animation:none"></path></g>
<g transform="matrix(0.9659258127212524,0.258819043636322,-0.258819043636322,0.9659258127212524,92.47340393066406,271.05474853515625)" style="fill:rgb(0, 0, 0);stroke:none;transform:none;opacity:1;;animation:none"><path stroke-width="2" stroke-opacity="0" stroke="rgb(0, 77, 115)" fill="none" d="M -360 -110.615 C 0 -110.615 360 110.615 720 110.615 C 1080 110.615 1440 -110.615 1800 -110.615 C 2160 -110.615 2520 110.615 2880 110.615 C 3240 110.615 3600 -110.615 3960 -110.615" transform="matrix(1,0,0,1,-237.34080505371094,0)" style="fill:none;stroke:rgb(0, 77, 115);transform:none;opacity:1;;animation:none"></path></g>
<g transform="matrix(0.9659258127212524,0.258819043636322,-0.258819043636322,0.9659258127212524,92.47340393066406,-99.60523986816406)" style="fill:rgb(0, 0, 0);stroke:none;transform:none;opacity:1;;animation:none"><path stroke-width="2" stroke-opacity="0" stroke="rgb(0, 77, 115)" fill="none" d="M -360 -108.093 C 0 -108.093 360 108.093 720 108.093 C 1080 108.093 1440 -108.093 1800 -108.093 C 2160 -108.093 2520 108.093 2880 108.093 C 3240 108.093 3600 -108.093 3960 -108.093" transform="matrix(1,0,0,1,-249.8256072998047,0)" style="fill:none;stroke:rgb(0, 77, 115);transform:none;opacity:1;;animation:none"></path></g>
<g transform="matrix(0.9659258127212524,0.258819043636322,-0.258819043636322,0.9659258127212524,92.47340393066406,268.5247497558594)" style="fill:rgb(0, 0, 0);stroke:none;transform:none;opacity:1;;animation:none"><path stroke-width="2" stroke-opacity="0" stroke="rgb(0, 77, 115)" fill="none" d="M -360 -105.398 C 0 -105.398 360 105.398 720 105.398 C 1080 105.398 1440 -105.398 1800 -105.398 C 2160 -105.398 2520 105.398 2880 105.398 C 3240 105.398 3600 -105.398 3960 -105.398" transform="matrix(1,0,0,1,-262.3103942871094,0)" style="fill:none;stroke:rgb(0, 77, 115);transform:none;opacity:1;;animation:none"></path></g>
<g transform="matrix(0.9659258127212524,0.258819043636322,-0.258819043636322,0.9659258127212524,92.47340393066406,-97.07524108886719)" style="fill:rgb(0, 0, 0);stroke:none;transform:none;opacity:1;;animation:none"><path stroke-width="2" stroke-opacity="0" stroke="rgb(0, 77, 115)" fill="none" d="M -360 -102.526 C 0 -102.526 360 102.526 720 102.526 C 1080 102.526 1440 -102.526 1800 -102.526 C 2160 -102.526 2520 102.526 2880 102.526 C 3240 102.526 3600 -102.526 3960 -102.526" transform="matrix(1,0,0,1,-274.7951965332031,0)" style="fill:none;stroke:rgb(0, 77, 115);transform:none;opacity:1;;animation:none"></path></g>
<g transform="matrix(0.9659258127212524,0.258819043636322,-0.258819043636322,0.9659258127212524,92.47340393066406,265.9947509765625)" style="fill:rgb(0, 0, 0);stroke:none;transform:none;opacity:1;;animation:none"><path stroke-width="2" stroke-opacity="0" stroke="rgb(0, 77, 115)" fill="none" d="M -360 -99.4624 C 0 -99.4624 360 99.4624 720 99.4624 C 1080 99.4624 1440 -99.4624 1800 -99.4624 C 2160 -99.4624 2520 99.4624 2880 99.4624 C 3240 99.4624 3600 -99.4624 3960 -99.4624" transform="matrix(1,0,0,1,-287.3232116699219,0)" style="fill:none;stroke:rgb(0, 77, 115);transform:none;opacity:1;;animation:none"></path></g>
<g transform="matrix(0.9659258127212524,0.258819043636322,-0.258819043636322,0.9659258127212524,92.47340393066406,-94.54524230957031)" style="fill:rgb(0, 0, 0);stroke:none;transform:none;opacity:1;;animation:none"><path stroke-width="2" stroke-opacity="0" stroke="rgb(0, 77, 115)" fill="none" d="M -360 -96.2243 C 0 -96.2243 360 96.2243 720 96.2243 C 1080 96.2243 1440 -96.2243 1800 -96.2243 C 2160 -96.2243 2520 96.2243 2880 96.2243 C 3240 96.2243 3600 -96.2243 3960 -96.2243" transform="matrix(1,0,0,1,-299.8080139160156,0)" style="fill:none;stroke:rgb(0, 77, 115);transform:none;opacity:1;;animation:none"></path></g>
<g transform="matrix(0.9659258127212524,0.258819043636322,-0.258819043636322,0.9659258127212524,92.47340393066406,263.4647521972656)" style="fill:rgb(0, 0, 0);stroke:none;transform:none;opacity:1;;animation:none"><path stroke-width="2" stroke-opacity="0" stroke="rgb(0, 77, 115)" fill="none" d="M -360 -92.7985 C 0 -92.7985 360 92.7985 720 92.7985 C 1080 92.7985 1440 -92.7985 1800 -92.7985 C 2160 -92.7985 2520 92.7985 2880 92.7985 C 3240 92.7985 3600 -92.7985 3960 -92.7985" transform="matrix(1,0,0,1,-312.29278564453125,0)" style="fill:none;stroke:rgb(0, 77, 115);transform:none;opacity:1;;animation:none"></path></g>
<g transform="matrix(0.9659258127212524,0.258819043636322,-0.258819043636322,0.9659258127212524,92.47340393066406,-92.01524353027344)" style="fill:rgb(0, 0, 0);stroke:none;transform:none;opacity:1;;animation:none"><path stroke-width="2" stroke-opacity="0" stroke="rgb(0, 77, 115)" fill="none" d="M -360 -89.1821 C 0 -89.1821 360 89.1821 720 89.1821 C 1080 89.1821 1440 -89.1821 1800 -89.1821 C 2160 -89.1821 2520 89.1821 2880 89.1821 C 3240 89.1821 3600 -89.1821 3960 -89.1821" transform="matrix(1,0,0,1,-324.777587890625,0)" style="fill:none;stroke:rgb(0, 77, 115);transform:none;opacity:1;;animation:none"></path></g>
<g transform="matrix(0.9659258127212524,0.258819043636322,-0.258819043636322,0.9659258127212524,92.47340393066406,260.93475341796875)" style="fill:rgb(0, 0, 0);stroke:none;transform:none;opacity:1;;animation:none"><path stroke-width="2" stroke-opacity="0" stroke="rgb(0, 77, 115)" fill="none" d="M -360 -85.3734 C 0 -85.3734 360 85.3734 720 85.3734 C 1080 85.3734 1440 -85.3734 1800 -85.3734 C 2160 -85.3734 2520 85.3734 2880 85.3734 C 3240 85.3734 3600 -85.3734 3960 -85.3734" transform="matrix(1,0,0,1,-337.26239013671875,0)" style="fill:none;stroke:rgb(0, 77, 115);transform:none;opacity:1;;animation:none"></path></g>
<g transform="matrix(0.9659258127212524,0.258819043636322,-0.258819043636322,0.9659258127212524,92.47340393066406,-89.48524475097656)" style="fill:rgb(0, 0, 0);stroke:none;transform:none;opacity:1;;animation:none"><path stroke-width="2" stroke-opacity="0" stroke="rgb(0, 77, 115)" fill="none" d="M -360 -81.3709 C 0 -81.3709 360 81.3709 720 81.3709 C 1080 81.3709 1440 -81.3709 1800 -81.3709 C 2160 -81.3709 2520 81.3709 2880 81.3709 C 3240 81.3709 3600 -81.3709 3960 -81.3709" transform="matrix(1,0,0,1,-349.7471923828125,0)" style="fill:none;stroke:rgb(0, 77, 115);transform:none;opacity:1;;animation:none"></path></g>
<g transform="matrix(0.9659258127212524,0.258819043636322,-0.258819043636322,0.9659258127212524,92.47340393066406,258.4047546386719)" style="fill:rgb(0, 0, 0);stroke:none;transform:none;opacity:1;;animation:none"><path stroke-width="2" stroke-opacity="0" stroke="rgb(0, 77, 115)" fill="none" d="M -360 -77.1597 C 0 -77.1597 360 77.1597 720 77.1597 C 1080 77.1597 1440 -77.1597 1800 -77.1597 C 2160 -77.1597 2520 77.1597 2880 77.1597 C 3240 77.1597 3600 -77.1597 3960 -77.1597" transform="matrix(1,0,0,1,-362.27520751953125,0)" style="fill:none;stroke:rgb(0, 77, 115);transform:none;opacity:1;;animation:none"></path></g>
<g transform="matrix(0.9659258127212524,0.258819043636322,-0.258819043636322,0.9659258127212524,92.47340393066406,-86.95524597167969)" style="fill:rgb(0, 0, 0);stroke:none;transform:none;opacity:1;;animation:none"><path stroke-width="2" stroke-opacity="0" stroke="rgb(0, 77, 115)" fill="none" d="M -360 -72.7696 C 0 -72.7696 360 72.7696 720 72.7696 C 1080 72.7696 1440 -72.7696 1800 -72.7696 C 2160 -72.7696 2520 72.7696 2880 72.7696 C 3240 72.7696 3600 -72.7696 3960 -72.7696" transform="matrix(1,0,0,1,-374.760009765625,0)" style="fill:none;stroke:rgb(0, 77, 115);transform:none;opacity:1;;animation:none"></path></g>
<g transform="matrix(0.9659258127212524,0.258819043636322,-0.258819043636322,0.9659258127212524,92.47340393066406,255.874755859375)" style="fill:rgb(0, 0, 0);stroke:none;transform:none;opacity:1;;animation:none"><path stroke-width="2" stroke-opacity="0" stroke="rgb(0, 77, 115)" fill="none" d="M -360 -68.1885 C 0 -68.1885 360 68.1885 720 68.1885 C 1080 68.1885 1440 -68.1885 1800 -68.1885 C 2160 -68.1885 2520 68.1885 2880 68.1885 C 3240 68.1885 3600 -68.1885 3960 -68.1885" transform="matrix(1,0,0,1,-387.24481201171875,0)" style="fill:none;stroke:rgb(0, 77, 115);transform:none;opacity:1;;animation:none"></path></g>
<g transform="matrix(0.9659258127212524,0.258819043636322,-0.258819043636322,0.9659258127212524,92.47340393066406,-84.42523956298828)" style="fill:rgb(0, 0, 0);stroke:none;transform:none;opacity:1;;animation:none"><path stroke-width="2" stroke-opacity="0" stroke="rgb(0, 77, 115)" fill="none" d="M -360 -63.4201 C 0 -63.4201 360 63.4201 720 63.4201 C 1080 63.4201 1440 -63.4201 1800 -63.4201 C 2160 -63.4201 2520 63.4201 2880 63.4201 C 3240 63.4201 3600 -63.4201 3960 -63.4201" transform="matrix(1,0,0,1,-399.7296142578125,0)" style="fill:none;stroke:rgb(0, 77, 115);transform:none;opacity:1;;animation:none"></path></g>
<g transform="matrix(0.9659258127212524,0.258819043636322,-0.258819043636322,0.9659258127212524,92.47340393066406,253.34475708007812)" style="fill:rgb(0, 0, 0);stroke:none;transform:none;opacity:1;;animation:none"><path stroke-width="2" stroke-opacity="0" stroke="rgb(0, 77, 115)" fill="none" d="M -360 -58.4695 C 0 -58.4695 360 58.4695 720 58.4695 C 1080 58.4695 1440 -58.4695 1800 -58.4695 C 2160 -58.4695 2520 58.4695 2880 58.4695 C 3240 58.4695 3600 -58.4695 3960 -58.4695" transform="matrix(1,0,0,1,-412.2143859863281,0)" style="fill:none;stroke:rgb(0, 77, 115);transform:none;opacity:1;;animation:none"></path></g>
<g transform="matrix(0.9659258127212524,0.258819043636322,-0.258819043636322,0.9659258127212524,92.47340393066406,-81.8952407836914)" style="fill:rgb(0, 0, 0);stroke:none;transform:none;opacity:1;;animation:none"><path stroke-width="2" stroke-opacity="0" stroke="rgb(0, 77, 115)" fill="none" d="M -360 -53.3437 C 0 -53.3437 360 53.3437 720 53.3437 C 1080 53.3437 1440 -53.3437 1800 -53.3437 C 2160 -53.3437 2520 53.3437 2880 53.3437 C 3240 53.3437 3600 -53.3437 3960 -53.3437" transform="matrix(1,0,0,1,-424.6991882324219,0)" style="fill:none;stroke:rgb(0, 77, 115);transform:none;opacity:1;;animation:none"></path></g>
<g transform="matrix(0.9659258127212524,0.258819043636322,-0.258819043636322,0.9659258127212524,92.47340393066406,250.81475830078125)" style="fill:rgb(0, 0, 0);stroke:none;transform:none;opacity:1;;animation:none"><path stroke-width="2" stroke-opacity="0" stroke="rgb(0, 77, 115)" fill="none" d="M -360 -48.0515 C 0 -48.0515 360 48.0515 720 48.0515 C 1080 48.0515 1440 -48.0515 1800 -48.0515 C 2160 -48.0515 2520 48.0515 2880 48.0515 C 3240 48.0515 3600 -48.0515 3960 -48.0515" transform="matrix(1,0,0,1,-437.1839904785156,0)" style="fill:none;stroke:rgb(0, 77, 115);transform:none;opacity:1;;animation:none"></path></g>
<g transform="matrix(0.9659258127212524,0.258819043636322,-0.258819043636322,0.9659258127212524,92.47340393066406,-79.36524200439453)" style="fill:rgb(0, 0, 0);stroke:none;transform:none;opacity:1;;animation:none"><path stroke-width="2" stroke-opacity="0" stroke="rgb(0, 77, 115)" fill="none" d="M -360 -42.5846 C 0 -42.5846 360 42.5846 720 42.5846 C 1080 42.5846 1440 -42.5846 1800 -42.5846 C 2160 -42.5846 2520 42.5846 2880 42.5846 C 3240 42.5846 3600 -42.5846 3960 -42.5846" transform="matrix(1,0,0,1,-449.7120056152344,0)" style="fill:none;stroke:rgb(0, 77, 115);transform:none;opacity:1;;animation:none"></path></g>
<g transform="matrix(0.9659258127212524,0.258819043636322,-0.258819043636322,0.9659258127212524,92.47340393066406,248.28475952148438)" style="fill:rgb(0, 0, 0);stroke:none;transform:none;opacity:1;;animation:none"><path stroke-width="2" stroke-opacity="0" stroke="rgb(0, 77, 115)" fill="none" d="M -360 -36.9936 C 0 -36.9936 360 36.9936 720 36.9936 C 1080 36.9936 1440 -36.9936 1800 -36.9936 C 2160 -36.9936 2520 36.9936 2880 36.9936 C 3240 36.9936 3600 -36.9936 3960 -36.9936" transform="matrix(1,0,0,1,-462.1968078613281,0)" style="fill:none;stroke:rgb(0, 77, 115);transform:none;opacity:1;;animation:none"></path></g>
<g transform="matrix(0.9659258127212524,0.258819043636322,-0.258819043636322,0.9659258127212524,92.47340393066406,-76.83524322509766)" style="fill:rgb(0, 0, 0);stroke:none;transform:none;opacity:1;;animation:none"><path stroke-width="2" stroke-opacity="0" stroke="rgb(0, 77, 115)" fill="none" d="M -360 -31.2747 C 0 -31.2747 360 31.2747 720 31.2747 C 1080 31.2747 1440 -31.2747 1800 -31.2747 C 2160 -31.2747 2520 31.2747 2880 31.2747 C 3240 31.2747 3600 -31.2747 3960 -31.2747" transform="matrix(1,0,0,1,-474.6816101074219,0)" style="fill:none;stroke:rgb(0, 77, 115);transform:none;opacity:1;;animation:none"></path></g>
<g transform="matrix(0.9659258127212524,0.258819043636322,-0.258819043636322,0.9659258127212524,92.47340393066406,245.7547607421875)" style="fill:rgb(0, 0, 0);stroke:none;transform:none;opacity:1;;animation:none"><path stroke-width="2" stroke-opacity="0" stroke="rgb(0, 77, 115)" fill="none" d="M -360 -25.4448 C 0 -25.4448 360 25.4448 720 25.4448 C 1080 25.4448 1440 -25.4448 1800 -25.4448 C 2160 -25.4448 2520 25.4448 2880 25.4448 C 3240 25.4448 3600 -25.4448 3960 -25.4448" transform="matrix(1,0,0,1,-487.1664123535156,0)" style="fill:none;stroke:rgb(0, 77, 115);transform:none;opacity:1;;animation:none"></path></g>
<g transform="matrix(0.9659258127212524,0.258819043636322,-0.258819043636322,0.9659258127212524,92.47340393066406,-74.30524444580078)" style="fill:rgb(0, 0, 0);stroke:none;transform:none;opacity:1;;animation:none"><path stroke-width="2" stroke-opacity="0" stroke="rgb(0, 77, 115)" fill="none" d="M -360 -19.5226 C 0 -19.5226 360 19.5226 720 19.5226 C 1080 19.5226 1440 -19.5226 1800 -19.5226 C 2160 -19.5226 2520 19.5226 2880 19.5226 C 3240 19.5226 3600 -19.5226 3960 -19.5226" transform="matrix(1,0,0,1,-499.6512145996094,0)" style="fill:none;stroke:rgb(0, 77, 115);transform:none;opacity:1;;animation:none"></path></g>
<g transform="matrix(0.9659258127212524,0.258819043636322,-0.258819043636322,0.9659258127212524,92.47340393066406,243.22476196289062)" style="fill:rgb(0, 0, 0);stroke:none;transform:none;opacity:1;;animation:none"><path stroke-width="2" stroke-opacity="0" stroke="rgb(0, 77, 115)" fill="none" d="M -360 -13.5282 C 0 -13.5282 360 13.5282 720 13.5282 C 1080 13.5282 1440 -13.5282 1800 -13.5282 C 2160 -13.5282 2520 13.5282 2880 13.5282 C 3240 13.5282 3600 -13.5282 3960 -13.5282" transform="matrix(1,0,0,1,-512.135986328125,0)" style="fill:none;stroke:rgb(0, 77, 115);transform:none;opacity:1;;animation:none"></path></g>
<g transform="matrix(0.9659258127212524,0.258819043636322,-0.258819043636322,0.9659258127212524,92.47340393066406,-71.7752456665039)" style="fill:rgb(0, 0, 0);stroke:none;transform:none;opacity:1;;animation:none"><path stroke-width="2" stroke-opacity="0" stroke="rgb(0, 77, 115)" fill="none" d="M -360 -7.46207 C 0 -7.46207 360 7.46207 720 7.46207 C 1080 7.46207 1440 -7.46207 1800 -7.46207 C 2160 -7.46207 2520 7.46207 2880 7.46207 C 3240 7.46207 3600 -7.46207 3960 -7.46207" transform="matrix(1,0,0,1,-524.6640014648438,0)" style="fill:none;stroke:rgb(0, 77, 115);transform:none;opacity:1;;animation:none"></path></g>
<g transform="matrix(0.9659258127212524,0.258819043636322,-0.258819043636322,0.9659258127212524,92.47340393066406,240.69476318359375)" style="fill:rgb(0, 0, 0);stroke:none;transform:none;opacity:1;;animation:none"><path stroke-width="2" stroke-opacity="0" stroke="rgb(0, 77, 115)" fill="none" d="M -360 -1.38859 C 0 -1.38859 360 1.38859 720 1.38859 C 1080 1.38859 1440 -1.38859 1800 -1.38859 C 2160 -1.38859 2520 1.38859 2880 1.38859 C 3240 1.38859 3600 -1.38859 3960 -1.38859" transform="matrix(1,0,0,1,-537.1488037109375,0)" style="fill:none;stroke:rgb(0, 77, 115);transform:none;opacity:1;;animation:none"></path></g>
<g transform="matrix(0.9659258127212524,0.258819043636322,-0.258819043636322,0.9659258127212524,92.47340393066406,-69.2452392578125)" style="fill:rgb(0, 0, 0);stroke:none;transform:none;opacity:1;;animation:none"><path stroke-width="2" stroke-opacity="0.023809523809523808" stroke="rgb(0, 77, 115)" fill="none" d="M -360 4.69015 C 0 4.69015 360 -4.69015 720 -4.69015 C 1080 -4.69015 1440 4.69015 1800 4.69015 C 2160 4.69015 2520 -4.69015 2880 -4.69015 C 3240 -4.69015 3600 4.69015 3960 4.69015" transform="matrix(1,0,0,1,-549.6336059570312,0)" style="fill:none;stroke:rgb(0, 77, 115);transform:none;opacity:1;;animation:none"></path></g>
<g transform="matrix(0.9659258127212524,0.258819043636322,-0.258819043636322,0.9659258127212524,92.47340393066406,238.16476440429688)" style="fill:rgb(0, 0, 0);stroke:none;transform:none;opacity:1;;animation:none"><path stroke-width="2" stroke-opacity="0.047619047619047616" stroke="rgb(0, 77, 115)" fill="none" d="M -360 10.7511 C 0 10.7511 360 -10.7511 720 -10.7511 C 1080 -10.7511 1440 10.7511 1800 10.7511 C 2160 10.7511 2520 -10.7511 2880 -10.7511 C 3240 -10.7511 3600 10.7511 3960 10.7511" transform="matrix(1,0,0,1,-562.118408203125,0)" style="fill:none;stroke:rgb(0, 77, 115);transform:none;opacity:1;;animation:none"></path></g>
<g transform="matrix(0.9659258127212524,0.258819043636322,-0.258819043636322,0.9659258127212524,92.47340393066406,-66.71524047851562)" style="fill:rgb(0, 0, 0);stroke:none;transform:none;opacity:1;;animation:none"><path stroke-width="2" stroke-opacity="0.07142857142857142" stroke="rgb(0, 77, 115)" fill="none" d="M -360 16.7716 C 0 16.7716 360 -16.7716 720 -16.7716 C 1080 -16.7716 1440 16.7716 1800 16.7716 C 2160 16.7716 2520 -16.7716 2880 -16.7716 C 3240 -16.7716 3600 16.7716 3960 16.7716" transform="matrix(1,0,0,1,-574.6032104492188,0)" style="fill:none;stroke:rgb(0, 77, 115);transform:none;opacity:1;;animation:none"></path></g>
<g transform="matrix(0.9659258127212524,0.258819043636322,-0.258819043636322,0.9659258127212524,92.47340393066406,235.634765625)" style="fill:rgb(0, 0, 0);stroke:none;transform:none;opacity:1;;animation:none"><path stroke-width="2" stroke-opacity="0.09523809523809523" stroke="rgb(0, 77, 115)" fill="none" d="M -360 22.7297 C 0 22.7297 360 -22.7297 720 -22.7297 C 1080 -22.7297 1440 22.7297 1800 22.7297 C 2160 22.7297 2520 -22.7297 2880 -22.7297 C 3240 -22.7297 3600 22.7297 3960 22.7297" transform="matrix(1,0,0,1,-587.0880126953125,0)" style="fill:none;stroke:rgb(0, 77, 115);transform:none;opacity:1;;animation:none"></path></g>
<g transform="matrix(0.9659258127212524,0.258819043636322,-0.258819043636322,0.9659258127212524,92.47340393066406,-64.18524169921875)" style="fill:rgb(0, 0, 0);stroke:none;transform:none;opacity:1;;animation:none"><path stroke-width="2" stroke-opacity="0.11904761904761904" stroke="rgb(0, 77, 115)" fill="none" d="M -360 28.6246 C 0 28.6246 360 -28.6246 720 -28.6246 C 1080 -28.6246 1440 28.6246 1800 28.6246 C 2160 28.6246 2520 -28.6246 2880 -28.6246 C 3240 -28.6246 3600 28.6246 3960 28.6246" transform="matrix(1,0,0,1,-599.6160278320312,0)" style="fill:none;stroke:rgb(0, 77, 115);transform:none;opacity:1;;animation:none"></path></g>
<g transform="matrix(0.9659258127212524,0.258819043636322,-0.258819043636322,0.9659258127212524,92.47340393066406,233.10476684570312)" style="fill:rgb(0, 0, 0);stroke:none;transform:none;opacity:1;;animation:none"><path stroke-width="2" stroke-opacity="0.14285714285714285" stroke="rgb(0, 77, 115)" fill="none" d="M -360 34.3964 C 0 34.3964 360 -34.3964 720 -34.3964 C 1080 -34.3964 1440 34.3964 1800 34.3964 C 2160 34.3964 2520 -34.3964 2880 -34.3964 C 3240 -34.3964 3600 34.3964 3960 34.3964" transform="matrix(1,0,0,1,-612.100830078125,0)" style="fill:none;stroke:rgb(0, 77, 115);transform:none;opacity:1;;animation:none"></path></g>
<g transform="matrix(0.9659258127212524,0.258819043636322,-0.258819043636322,0.9659258127212524,92.47340393066406,-61.655242919921875)" style="fill:rgb(0, 0, 0);stroke:none;transform:none;opacity:1;;animation:none"><path stroke-width="2" stroke-opacity="0.16666666666666666" stroke="rgb(0, 77, 115)" fill="none" d="M -360 40.0477 C 0 40.0477 360 -40.0477 720 -40.0477 C 1080 -40.0477 1440 40.0477 1800 40.0477 C 2160 40.0477 2520 -40.0477 2880 -40.0477 C 3240 -40.0477 3600 40.0477 3960 40.0477" transform="matrix(1,0,0,1,-624.5855712890625,0)" style="fill:none;stroke:rgb(0, 77, 115);transform:none;opacity:1;;animation:none"></path></g>
<g transform="matrix(0.9659258127212524,0.258819043636322,-0.258819043636322,0.9659258127212524,92.47340393066406,230.57476806640625)" style="fill:rgb(0, 0, 0);stroke:none;transform:none;opacity:1;;animation:none"><path stroke-width="2" stroke-opacity="0.19047619047619047" stroke="rgb(0, 77, 115)" fill="none" d="M -360 45.563 C 0 45.563 360 -45.563 720 -45.563 C 1080 -45.563 1440 45.563 1800 45.563 C 2160 45.563 2520 -45.563 2880 -45.563 C 3240 -45.563 3600 45.563 3960 45.563" transform="matrix(1,0,0,1,-637.0703735351562,0)" style="fill:none;stroke:rgb(0, 77, 115);transform:none;opacity:1;;animation:none"></path></g>
<g transform="matrix(0.9659258127212524,0.258819043636322,-0.258819043636322,0.9659258127212524,92.47340393066406,-59.125244140625)" style="fill:rgb(0, 0, 0);stroke:none;transform:none;opacity:1;;animation:none"><path stroke-width="2" stroke-opacity="0.21428571428571427" stroke="rgb(0, 77, 115)" fill="none" d="M -360 50.9283 C 0 50.9283 360 -50.9283 720 -50.9283 C 1080 -50.9283 1440 50.9283 1800 50.9283 C 2160 50.9283 2520 -50.9283 2880 -50.9283 C 3240 -50.9283 3600 50.9283 3960 50.9283" transform="matrix(1,0,0,1,-649.55517578125,0)" style="fill:none;stroke:rgb(0, 77, 115);transform:none;opacity:1;;animation:none"></path></g>
<g transform="matrix(0.9659258127212524,0.258819043636322,-0.258819043636322,0.9659258127212524,92.47340393066406,228.04476928710938)" style="fill:rgb(0, 0, 0);stroke:none;transform:none;opacity:1;;animation:none"><path stroke-width="2" stroke-opacity="0.23809523809523808" stroke="rgb(0, 77, 115)" fill="none" d="M -360 56.1319 C 0 56.1319 360 -56.1319 720 -56.1319 C 1080 -56.1319 1440 56.1319 1800 56.1319 C 2160 56.1319 2520 -56.1319 2880 -56.1319 C 3240 -56.1319 3600 56.1319 3960 56.1319" transform="matrix(1,0,0,1,-662.0399780273438,0)" style="fill:none;stroke:rgb(0, 77, 115);transform:none;opacity:1;;animation:none"></path></g>
<g transform="matrix(0.9659258127212524,0.258819043636322,-0.258819043636322,0.9659258127212524,92.47340393066406,-56.595245361328125)" style="fill:rgb(0, 0, 0);stroke:none;transform:none;opacity:1;;animation:none"><path stroke-width="2" stroke-opacity="0.2619047619047619" stroke="rgb(0, 77, 115)" fill="none" d="M -360 61.1641 C 0 61.1641 360 -61.1641 720 -61.1641 C 1080 -61.1641 1440 61.1641 1800 61.1641 C 2160 61.1641 2520 -61.1641 2880 -61.1641 C 3240 -61.1641 3600 61.1641 3960 61.1641" transform="matrix(1,0,0,1,-674.5247802734375,0)" style="fill:none;stroke:rgb(0, 77, 115);transform:none;opacity:1;;animation:none"></path></g>
<g transform="matrix(0.9659258127212524,0.258819043636322,-0.258819043636322,0.9659258127212524,92.47340393066406,225.5147705078125)" style="fill:rgb(0, 0, 0);stroke:none;transform:none;opacity:1;;animation:none"><path stroke-width="2" stroke-opacity="0.2857142857142857" stroke="rgb(0, 77, 115)" fill="none" d="M -360 66.0336 C 0 66.0336 360 -66.0336 720 -66.0336 C 1080 -66.0336 1440 66.0336 1800 66.0336 C 2160 66.0336 2520 -66.0336 2880 -66.0336 C 3240 -66.0336 3600 66.0336 3960 66.0336" transform="matrix(1,0,0,1,-687.0527954101562,0)" style="fill:none;stroke:rgb(0, 77, 115);transform:none;opacity:1;;animation:none"></path></g>
<g transform="matrix(0.9659258127212524,0.258819043636322,-0.258819043636322,0.9659258127212524,92.47340393066406,-54.06524658203125)" style="fill:rgb(0, 0, 0);stroke:none;transform:none;opacity:1;;animation:none"><path stroke-width="2" stroke-opacity="0.30952380952380953" stroke="rgb(0, 77, 115)" fill="none" d="M -360 70.7007 C 0 70.7007 360 -70.7007 720 -70.7007 C 1080 -70.7007 1440 70.7007 1800 70.7007 C 2160 70.7007 2520 -70.7007 2880 -70.7007 C 3240 -70.7007 3600 70.7007 3960 70.7007" transform="matrix(1,0,0,1,-699.53759765625,0)" style="fill:none;stroke:rgb(0, 77, 115);transform:none;opacity:1;;animation:none"></path></g>
<g transform="matrix(0.9659258127212524,0.258819043636322,-0.258819043636322,0.9659258127212524,92.47340393066406,222.98477172851562)" style="fill:rgb(0, 0, 0);stroke:none;transform:none;opacity:1;;animation:none"><path stroke-width="2" stroke-opacity="0.3333333333333333" stroke="rgb(0, 77, 115)" fill="none" d="M -360 75.1784 C 0 75.1784 360 -75.1784 720 -75.1784 C 1080 -75.1784 1440 75.1784 1800 75.1784 C 2160 75.1784 2520 -75.1784 2880 -75.1784 C 3240 -75.1784 3600 75.1784 3960 75.1784" transform="matrix(1,0,0,1,-712.0223999023438,0)" style="fill:none;stroke:rgb(0, 77, 115);transform:none;opacity:1;;animation:none"></path></g>
<g transform="matrix(0.9659258127212524,0.258819043636322,-0.258819043636322,0.9659258127212524,92.47340393066406,-51.535240173339844)" style="fill:rgb(0, 0, 0);stroke:none;transform:none;opacity:1;;animation:none"><path stroke-width="2" stroke-opacity="0.35714285714285715" stroke="rgb(0, 77, 115)" fill="none" d="M -360 79.4638 C 0 79.4638 360 -79.4638 720 -79.4638 C 1080 -79.4638 1440 79.4638 1800 79.4638 C 2160 79.4638 2520 -79.4638 2880 -79.4638 C 3240 -79.4638 3600 79.4638 3960 79.4638" transform="matrix(1,0,0,1,-724.5072021484375,0)" style="fill:none;stroke:rgb(0, 77, 115);transform:none;opacity:1;;animation:none"></path></g>
<g transform="matrix(0.9659258127212524,0.258819043636322,-0.258819043636322,0.9659258127212524,92.47340393066406,220.45474243164062)" style="fill:rgb(0, 0, 0);stroke:none;transform:none;opacity:1;;animation:none"><path stroke-width="2" stroke-opacity="0.38095238095238093" stroke="rgb(0, 77, 115)" fill="none" d="M -360 83.5555 C 0 83.5555 360 -83.5555 720 -83.5555 C 1080 -83.5555 1440 83.5555 1800 83.5555 C 2160 83.5555 2520 -83.5555 2880 -83.5555 C 3240 -83.5555 3600 83.5555 3960 83.5555" transform="matrix(1,0,0,1,-736.9920043945312,0)" style="fill:none;stroke:rgb(0, 77, 115);transform:none;opacity:1;;animation:none"></path></g>
<g transform="matrix(0.9659258127212524,0.258819043636322,-0.258819043636322,0.9659258127212524,92.47340393066406,-49.0052490234375)" style="fill:rgb(0, 0, 0);stroke:none;transform:none;opacity:1;;animation:none"><path stroke-width="2" stroke-opacity="0.40476190476190477" stroke="rgb(0, 77, 115)" fill="none" d="M -360 87.4533 C 0 87.4533 360 -87.4533 720 -87.4533 C 1080 -87.4533 1440 87.4533 1800 87.4533 C 2160 87.4533 2520 -87.4533 2880 -87.4533 C 3240 -87.4533 3600 87.4533 3960 87.4533" transform="matrix(1,0,0,1,-749.476806640625,0)" style="fill:none;stroke:rgb(0, 77, 115);transform:none;opacity:1;;animation:none"></path></g>
<g transform="matrix(0.9659258127212524,0.258819043636322,-0.258819043636322,0.9659258127212524,92.47340393066406,217.92474365234375)" style="fill:rgb(0, 0, 0);stroke:none;transform:none;opacity:1;;animation:none"><path stroke-width="2" stroke-opacity="0.42857142857142855" stroke="rgb(0, 77, 115)" fill="none" d="M -360 91.1705 C 0 91.1705 360 -91.1705 720 -91.1705 C 1080 -91.1705 1440 91.1705 1800 91.1705 C 2160 91.1705 2520 -91.1705 2880 -91.1705 C 3240 -91.1705 3600 91.1705 3960 91.1705" transform="matrix(1,0,0,1,-762.0048217773438,0)" style="fill:none;stroke:rgb(0, 77, 115);transform:none;opacity:1;;animation:none"></path></g>
<g transform="matrix(0.9659258127212524,0.258819043636322,-0.258819043636322,0.9659258127212524,92.47340393066406,-46.475250244140625)" style="fill:rgb(0, 0, 0);stroke:none;transform:none;opacity:1;;animation:none"><path stroke-width="2" stroke-opacity="0.4523809523809524" stroke="rgb(0, 77, 115)" fill="none" d="M -360 94.683 C 0 94.683 360 -94.683 720 -94.683 C 1080 -94.683 1440 94.683 1800 94.683 C 2160 94.683 2520 -94.683 2880 -94.683 C 3240 -94.683 3600 94.683 3960 94.683" transform="matrix(1,0,0,1,-774.4896240234375,0)" style="fill:none;stroke:rgb(0, 77, 115);transform:none;opacity:1;;animation:none"></path></g>
<g transform="matrix(0.9659258127212524,0.258819043636322,-0.258819043636322,0.9659258127212524,92.47340393066406,215.39474487304688)" style="fill:rgb(0, 0, 0);stroke:none;transform:none;opacity:1;;animation:none"><path stroke-width="2" stroke-opacity="0.47619047619047616" stroke="rgb(0, 77, 115)" fill="none" d="M -360 98.0065 C 0 98.0065 360 -98.0065 720 -98.0065 C 1080 -98.0065 1440 98.0065 1800 98.0065 C 2160 98.0065 2520 -98.0065 2880 -98.0065 C 3240 -98.0065 3600 98.0065 3960 98.0065" transform="matrix(1,0,0,1,-786.9744262695312,0)" style="fill:none;stroke:rgb(0, 77, 115);transform:none;opacity:1;;animation:none"></path></g>
<g transform="matrix(0.9659258127212524,0.258819043636322,-0.258819043636322,0.9659258127212524,92.47340393066406,-43.94523620605469)" style="fill:rgb(0, 0, 0);stroke:none;transform:none;opacity:1;;animation:none"><path stroke-width="2" stroke-opacity="0.5" stroke="rgb(0, 77, 115)" fill="none" d="M -360 101.144 C 0 101.144 360 -101.144 720 -101.144 C 1080 -101.144 1440 101.144 1800 101.144 C 2160 101.144 2520 -101.144 2880 -101.144 C 3240 -101.144 3600 101.144 3960 101.144" transform="matrix(1,0,0,1,-799.459228515625,0)" style="fill:none;stroke:rgb(0, 77, 115);transform:none;opacity:1;;animation:none"></path></g>
<g transform="matrix(0.9659258127212524,0.258819043636322,-0.258819043636322,0.9659258127212524,92.47340393066406,212.86474609375)" style="fill:rgb(0, 0, 0);stroke:none;transform:none;opacity:1;;animation:none"><path stroke-width="2" stroke-opacity="0.5238095238095238" stroke="rgb(0, 77, 115)" fill="none" d="M -360 104.098 C 0 104.098 360 -104.098 720 -104.098 C 1080 -104.098 1440 104.098 1800 104.098 C 2160 104.098 2520 -104.098 2880 -104.098 C 3240 -104.098 3600 104.098 3960 104.098" transform="matrix(1,0,0,1,-811.9439697265625,0)" style="fill:none;stroke:rgb(0, 77, 115);transform:none;opacity:1;;animation:none"></path></g>
<g transform="matrix(0.9659258127212524,0.258819043636322,-0.258819043636322,0.9659258127212524,92.47340393066406,-41.41523742675781)" style="fill:rgb(0, 0, 0);stroke:none;transform:none;opacity:1;;animation:none"><path stroke-width="2" stroke-opacity="0.5476190476190477" stroke="rgb(0, 77, 115)" fill="none" d="M -360 106.874 C 0 106.874 360 -106.874 720 -106.874 C 1080 -106.874 1440 106.874 1800 106.874 C 2160 106.874 2520 -106.874 2880 -106.874 C 3240 -106.874 3600 106.874 3960 106.874" transform="matrix(1,0,0,1,-824.4287719726562,0)" style="fill:none;stroke:rgb(0, 77, 115);transform:none;opacity:1;;animation:none"></path></g>
<g transform="matrix(0.9659258127212524,0.258819043636322,-0.258819043636322,0.9659258127212524,92.47340393066406,210.33474731445312)" style="fill:rgb(0, 0, 0);stroke:none;transform:none;opacity:1;;animation:none"><path stroke-width="2" stroke-opacity="0.5714285714285714" stroke="rgb(0, 77, 115)" fill="none" d="M -360 109.475 C 0 109.475 360 -109.475 720 -109.475 C 1080 -109.475 1440 109.475 1800 109.475 C 2160 109.475 2520 -109.475 2880 -109.475 C 3240 -109.475 3600 109.475 3960 109.475" transform="matrix(1,0,0,1,-836.91357421875,0)" style="fill:none;stroke:rgb(0, 77, 115);transform:none;opacity:1;;animation:none"></path></g>
<g transform="matrix(0.9659258127212524,0.258819043636322,-0.258819043636322,0.9659258127212524,92.47340393066406,-38.88523864746094)" style="fill:rgb(0, 0, 0);stroke:none;transform:none;opacity:1;;animation:none"><path stroke-width="2" stroke-opacity="0.5952380952380952" stroke="rgb(0, 77, 115)" fill="none" d="M -360 111.914 C 0 111.914 360 -111.914 720 -111.914 C 1080 -111.914 1440 111.914 1800 111.914 C 2160 111.914 2520 -111.914 2880 -111.914 C 3240 -111.914 3600 111.914 3960 111.914" transform="matrix(1,0,0,1,-849.4415893554688,0)" style="fill:none;stroke:rgb(0, 77, 115);transform:none;opacity:1;;animation:none"></path></g>
<g transform="matrix(0.9659258127212524,0.258819043636322,-0.258819043636322,0.9659258127212524,92.47340393066406,207.80474853515625)" style="fill:rgb(0, 0, 0);stroke:none;transform:none;opacity:1;;animation:none"><path stroke-width="2" stroke-opacity="0.6190476190476191" stroke="rgb(0, 77, 115)" fill="none" d="M -360 114.178 C 0 114.178 360 -114.178 720 -114.178 C 1080 -114.178 1440 114.178 1800 114.178 C 2160 114.178 2520 -114.178 2880 -114.178 C 3240 -114.178 3600 114.178 3960 114.178" transform="matrix(1,0,0,1,-861.9263916015625,0)" style="fill:none;stroke:rgb(0, 77, 115);transform:none;opacity:1;;animation:none"></path></g>
<g transform="matrix(0.9659258127212524,0.258819043636322,-0.258819043636322,0.9659258127212524,92.47340393066406,-36.35523986816406)" style="fill:rgb(0, 0, 0);stroke:none;transform:none;opacity:1;;animation:none"><path stroke-width="2" stroke-opacity="0.6428571428571429" stroke="rgb(0, 77, 115)" fill="none" d="M -360 116.28 C 0 116.28 360 -116.28 720 -116.28 C 1080 -116.28 1440 116.28 1800 116.28 C 2160 116.28 2520 -116.28 2880 -116.28 C 3240 -116.28 3600 116.28 3960 116.28" transform="matrix(1,0,0,1,-874.4111938476562,0)" style="fill:none;stroke:rgb(0, 77, 115);transform:none;opacity:1;;animation:none"></path></g>
<g transform="matrix(0.9659258127212524,0.258819043636322,-0.258819043636322,0.9659258127212524,92.47340393066406,205.27474975585938)" style="fill:rgb(0, 0, 0);stroke:none;transform:none;opacity:1;;animation:none"><path stroke-width="2" stroke-opacity="0.6666666666666666" stroke="rgb(0, 77, 115)" fill="none" d="M -360 118.225 C 0 118.225 360 -118.225 720 -118.225 C 1080 -118.225 1440 118.225 1800 118.225 C 2160 118.225 2520 -118.225 2880 -118.225 C 3240 -118.225 3600 118.225 3960 118.225" transform="matrix(1,0,0,1,-886.89599609375,0)" style="fill:none;stroke:rgb(0, 77, 115);transform:none;opacity:1;;animation:none"></path></g>
<g transform="matrix(0.9659258127212524,0.258819043636322,-0.258819043636322,0.9659258127212524,92.47340393066406,-33.82524108886719)" style="fill:rgb(0, 0, 0);stroke:none;transform:none;opacity:1;;animation:none"><path stroke-width="2" stroke-opacity="0.6904761904761905" stroke="rgb(0, 77, 115)" fill="none" d="M -360 120.018 C 0 120.018 360 -120.018 720 -120.018 C 1080 -120.018 1440 120.018 1800 120.018 C 2160 120.018 2520 -120.018 2880 -120.018 C 3240 -120.018 3600 120.018 3960 120.018" transform="matrix(1,0,0,1,-899.3807983398438,0)" style="fill:none;stroke:rgb(0, 77, 115);transform:none;opacity:1;;animation:none"></path></g>
<g transform="matrix(0.9659258127212524,0.258819043636322,-0.258819043636322,0.9659258127212524,92.47340393066406,202.7447509765625)" style="fill:rgb(0, 0, 0);stroke:none;transform:none;opacity:1;;animation:none"><path stroke-width="2" stroke-opacity="0.7142857142857143" stroke="rgb(0, 77, 115)" fill="none" d="M -360 121.663 C 0 121.663 360 -121.663 720 -121.663 C 1080 -121.663 1440 121.663 1800 121.663 C 2160 121.663 2520 -121.663 2880 -121.663 C 3240 -121.663 3600 121.663 3960 121.663" transform="matrix(1,0,0,1,-911.8656005859375,0)" style="fill:none;stroke:rgb(0, 77, 115);transform:none;opacity:1;;animation:none"></path></g>
<g transform="matrix(0.9659258127212524,0.258819043636322,-0.258819043636322,0.9659258127212524,92.47340393066406,-31.29524040222168)" style="fill:rgb(0, 0, 0);stroke:none;transform:none;opacity:1;;animation:none"><path stroke-width="2" stroke-opacity="0.7380952380952381" stroke="rgb(0, 77, 115)" fill="none" d="M -360 123.17 C 0 123.17 360 -123.17 720 -123.17 C 1080 -123.17 1440 123.17 1800 123.17 C 2160 123.17 2520 -123.17 2880 -123.17 C 3240 -123.17 3600 123.17 3960 123.17" transform="matrix(1,0,0,1,-924.3936157226562,0)" style="fill:none;stroke:rgb(0, 77, 115);transform:none;opacity:1;;animation:none"></path></g>
<g transform="matrix(0.9659258127212524,0.258819043636322,-0.258819043636322,0.9659258127212524,92.47340393066406,200.21475219726562)" style="fill:rgb(0, 0, 0);stroke:none;transform:none;opacity:1;;animation:none"><path stroke-width="2" stroke-opacity="0.7619047619047619" stroke="rgb(0, 77, 115)" fill="none" d="M -360 124.532 C 0 124.532 360 -124.532 720 -124.532 C 1080 -124.532 1440 124.532 1800 124.532 C 2160 124.532 2520 -124.532 2880 -124.532 C 3240 -124.532 3600 124.532 3960 124.532" transform="matrix(1,0,0,1,-936.87841796875,0)" style="fill:none;stroke:rgb(0, 77, 115);transform:none;opacity:1;;animation:none"></path></g>
<g transform="matrix(0.9659258127212524,0.258819043636322,-0.258819043636322,0.9659258127212524,92.47340393066406,-28.765241622924805)" style="fill:rgb(0, 0, 0);stroke:none;transform:none;opacity:1;;animation:none"><path stroke-width="2" stroke-opacity="0.7857142857142857" stroke="rgb(0, 77, 115)" fill="none" d="M -360 125.759 C 0 125.759 360 -125.759 720 -125.759 C 1080 -125.759 1440 125.759 1800 125.759 C 2160 125.759 2520 -125.759 2880 -125.759 C 3240 -125.759 3600 125.759 3960 125.759" transform="matrix(1,0,0,1,-949.3632202148438,0)" style="fill:none;stroke:rgb(0, 77, 115);transform:none;opacity:1;;animation:none"></path></g>
<g transform="matrix(0.9659258127212524,0.258819043636322,-0.258819043636322,0.9659258127212524,92.47340393066406,197.68475341796875)" style="fill:rgb(0, 0, 0);stroke:none;transform:none;opacity:1;;animation:none"><path stroke-width="2" stroke-opacity="0.8095238095238095" stroke="rgb(0, 77, 115)" fill="none" d="M -360 126.856 C 0 126.856 360 -126.856 720 -126.856 C 1080 -126.856 1440 126.856 1800 126.856 C 2160 126.856 2520 -126.856 2880 -126.856 C 3240 -126.856 3600 126.856 3960 126.856" transform="matrix(1,0,0,1,-961.8480224609375,0)" style="fill:none;stroke:rgb(0, 77, 115);transform:none;opacity:1;;animation:none"></path></g>
<g transform="matrix(0.9659258127212524,0.258819043636322,-0.258819043636322,0.9659258127212524,92.47340393066406,-26.23524284362793)" style="fill:rgb(0, 0, 0);stroke:none;transform:none;opacity:1;;animation:none"><path stroke-width="2" stroke-opacity="0.8333333333333334" stroke="rgb(0, 77, 115)" fill="none" d="M -360 127.826 C 0 127.826 360 -127.826 720 -127.826 C 1080 -127.826 1440 127.826 1800 127.826 C 2160 127.826 2520 -127.826 2880 -127.826 C 3240 -127.826 3600 127.826 3960 127.826" transform="matrix(1,0,0,1,-974.3328247070312,0)" style="fill:none;stroke:rgb(0, 77, 115);transform:none;opacity:1;;animation:none"></path></g>
<g transform="matrix(0.9659258127212524,0.258819043636322,-0.258819043636322,0.9659258127212524,92.47340393066406,195.15475463867188)" style="fill:rgb(0, 0, 0);stroke:none;transform:none;opacity:1;;animation:none"><path stroke-width="2" stroke-opacity="0.8571428571428571" stroke="rgb(0, 77, 115)" fill="none" d="M -360 128.674 C 0 128.674 360 -128.674 720 -128.674 C 1080 -128.674 1440 128.674 1800 128.674 C 2160 128.674 2520 -128.674 2880 -128.674 C 3240 -128.674 3600 128.674 3960 128.674" transform="matrix(1,0,0,1,-986.817626953125,0)" style="fill:none;stroke:rgb(0, 77, 115);transform:none;opacity:1;;animation:none"></path></g>
<g transform="matrix(0.9659258127212524,0.258819043636322,-0.258819043636322,0.9659258127212524,92.47340393066406,-23.705244064331055)" style="fill:rgb(0, 0, 0);stroke:none;transform:none;opacity:1;;animation:none"><path stroke-width="2" stroke-opacity="0.8809523809523809" stroke="rgb(0, 77, 115)" fill="none" d="M -360 129.406 C 0 129.406 360 -129.406 720 -129.406 C 1080 -129.406 1440 129.406 1800 129.406 C 2160 129.406 2520 -129.406 2880 -129.406 C 3240 -129.406 3600 129.406 3960 129.406" transform="matrix(1,0,0,1,-999.3455810546875,0)" style="fill:none;stroke:rgb(0, 77, 115);transform:none;opacity:1;;animation:none"></path></g>
<g transform="matrix(0.9659258127212524,0.258819043636322,-0.258819043636322,0.9659258127212524,92.47340393066406,192.624755859375)" style="fill:rgb(0, 0, 0);stroke:none;transform:none;opacity:1;;animation:none"><path stroke-width="2" stroke-opacity="0.9047619047619048" stroke="rgb(0, 77, 115)" fill="none" d="M -360 130.02 C 0 130.02 360 -130.02 720 -130.02 C 1080 -130.02 1440 130.02 1800 130.02 C 2160 130.02 2520 -130.02 2880 -130.02 C 3240 -130.02 3600 130.02 3960 130.02" transform="matrix(1,0,0,1,-1011.8303833007812,0)" style="fill:none;stroke:rgb(0, 77, 115);transform:none;opacity:1;;animation:none"></path></g>
<g transform="matrix(0.9659258127212524,0.258819043636322,-0.258819043636322,0.9659258127212524,92.47340393066406,-21.17524528503418)" style="fill:rgb(0, 0, 0);stroke:none;transform:none;opacity:1;;animation:none"><path stroke-width="2" stroke-opacity="0.9285714285714286" stroke="rgb(0, 77, 115)" fill="none" d="M -360 130.523 C 0 130.523 360 -130.523 720 -130.523 C 1080 -130.523 1440 130.523 1800 130.523 C 2160 130.523 2520 -130.523 2880 -130.523 C 3240 -130.523 3600 130.523 3960 130.523" transform="matrix(1,0,0,1,-1024.315185546875,0)" style="fill:none;stroke:rgb(0, 77, 115);transform:none;opacity:1;;animation:none"></path></g>
<g style="fill:rgb(0, 0, 0);stroke:none;transform:none;opacity:1;;animation:none"></g></g><!-- [ldio] generated by https://loading.io --></svg>