<svg width="80" height="80" viewBox="0 0 80 80" fill="none" xmlns="http://www.w3.org/2000/svg">
<path d="M53.08 42.66H18.07C18.19 46.56 19.24 49.65 21.22 51.93C23.2 54.21 25.72 55.71 28.78 56.43C31.84 57.15 35.11 57.09 38.59 56.25C42.07 55.41 45.37 53.82 48.49 51.48L52.27 57.06C49.33 59.34 46.27 61.02 43.09 62.1C39.91 63.18 36.73 63.75 33.55 63.81C26.05 63.99 20.32 61.92 16.36 57.6C12.4 53.22 10.42 47.13 10.42 39.33C10.42 32.67 12.28 27.36 16 23.4C19.78 19.44 25.24 17.49 32.38 17.55C37.06 17.55 41.05 18.51 44.35 20.43C47.65 22.35 50.08 25.2 51.64 28.98C52.42 30.84 52.9 32.91 53.08 35.19C53.32 37.47 53.32 39.96 53.08 42.66ZM32.74 24.21C28.66 24.21 25.18 25.29 22.3 27.45C19.48 29.55 18.07 32.7 18.07 36.9H46.69C46.69 32.94 45.43 29.85 42.91 27.63C40.45 25.35 37.06 24.21 32.74 24.21Z" fill="white"/>
<circle cx="61.5" cy="13.5" r="9.5" fill="url(#paint0_linear_1908_237)"/>
<defs>
<linearGradient id="paint0_linear_1908_237" x1="61.5" y1="4" x2="61.5" y2="23" gradientUnits="userSpaceOnUse">
<stop stop-color="#6DEDB1"/>
<stop offset="0.134615" stop-color="#00F884"/>
<stop offset="1" stop-color="#03C96D"/>
</linearGradient>
</defs>
</svg>
