<svg width="282" height="92" viewBox="0 0 282 92" fill="none" xmlns="http://www.w3.org/2000/svg">
<g clip-path="url(#clip0_1908_224)">
<path d="M49.152 57.304H11.808C11.936 61.464 13.056 64.76 15.168 67.192C17.28 69.624 19.968 71.224 23.232 71.992C26.496 72.76 29.984 72.696 33.696 71.8C37.408 70.904 40.928 69.208 44.256 66.712L48.288 72.664C45.152 75.096 41.888 76.888 38.496 78.04C35.104 79.192 31.712 79.8 28.32 79.864C20.32 80.056 14.208 77.848 9.984 73.24C5.76 68.568 3.648 62.072 3.648 53.752C3.648 46.648 5.632 40.984 9.6 36.76C13.632 32.536 19.456 30.456 27.072 30.52C32.064 30.52 36.32 31.544 39.84 33.592C43.36 35.64 45.952 38.68 47.616 42.712C48.448 44.696 48.96 46.904 49.152 49.336C49.408 51.768 49.408 54.424 49.152 57.304ZM27.456 37.624C23.104 37.624 19.392 38.776 16.32 41.08C13.312 43.32 11.808 46.68 11.808 51.16H42.336C42.336 46.936 40.992 43.64 38.304 41.272C35.68 38.84 32.064 37.624 27.456 37.624ZM93.4583 72.76C90.1303 75.768 86.6423 77.784 82.9943 78.808C79.3463 79.832 75.7943 79.992 72.3383 79.288C68.9463 78.648 65.8423 77.24 63.0263 75.064C60.2743 72.824 58.0663 70.008 56.4022 66.616C54.7383 63.16 53.9063 59.192 53.9063 54.712C53.9063 50.232 54.7063 46.328 56.3063 43C57.9703 39.608 60.1783 36.888 62.9303 34.84C65.7463 32.792 68.8823 31.48 72.3383 30.904C75.7943 30.328 79.3463 30.584 82.9943 31.672C86.7063 32.696 90.2263 34.648 93.5543 37.528L88.7543 43C85.9383 40.568 82.9303 39.096 79.7303 38.584C76.5943 38.008 73.6503 38.328 70.8983 39.544C68.1463 40.696 65.9063 42.584 64.1782 45.208C62.4503 47.768 61.5863 50.936 61.5863 54.712C61.5863 58.744 62.4503 62.168 64.1782 64.984C65.9703 67.736 68.2743 69.752 71.0903 71.032C73.9063 72.248 76.8823 72.568 80.0183 71.992C83.2183 71.416 86.1943 69.752 88.9463 67L93.4583 72.76ZM118.767 80.152C114.159 80.152 110.095 79.16 106.575 77.176C103.119 75.192 100.399 72.408 98.415 68.824C96.495 65.176 95.535 60.92 95.535 56.056C95.535 50.424 96.559 45.72 98.607 41.944C100.655 38.168 103.407 35.32 106.863 33.4C110.383 31.48 114.351 30.52 118.767 30.52C123.311 30.52 127.311 31.48 130.767 33.4C134.287 35.32 137.039 38.168 139.023 41.944C141.007 45.72 141.999 50.424 141.999 56.056C141.999 60.92 141.007 65.176 139.023 68.824C137.039 72.408 134.287 75.192 130.767 77.176C127.311 79.16 123.311 80.152 118.767 80.152ZM118.767 72.856C122.159 72.856 125.039 72.12 127.407 70.648C129.775 69.112 131.567 67.064 132.783 64.504C133.999 61.944 134.607 59.128 134.607 56.056C134.607 50.808 133.231 46.488 130.479 43.096C127.791 39.64 123.887 37.912 118.767 37.912C113.583 37.912 109.647 39.64 106.959 43.096C104.271 46.552 102.927 50.872 102.927 56.056C102.927 59.192 103.503 62.04 104.655 64.6C105.871 67.096 107.663 69.112 110.031 70.648C112.399 72.12 115.311 72.856 118.767 72.856ZM219.899 79H212.41V50.68C212.41 46.328 211.258 43.096 208.954 40.984C206.715 38.872 203.802 37.816 200.218 37.816C196.506 37.816 193.434 38.872 191.003 40.984C188.57 43.096 187.354 46.328 187.354 50.68V79H179.962V50.68C179.962 46.2 178.746 42.936 176.314 40.888C173.882 38.84 170.842 37.816 167.194 37.816C165.274 37.816 163.322 38.264 161.338 39.16C159.354 40.056 157.69 41.464 156.346 43.384C155.066 45.24 154.426 47.672 154.426 50.68V79H146.842V31H154.426V35.896C156.026 34.104 157.946 32.76 160.186 31.864C162.426 30.968 164.762 30.488 167.194 30.424C170.33 30.424 173.402 31.064 176.41 32.344C179.482 33.56 182.042 35.512 184.09 38.2C185.818 35.576 188.186 33.656 191.194 32.44C194.202 31.16 197.338 30.52 200.602 30.52C203.994 30.52 207.163 31.32 210.107 32.92C213.051 34.456 215.419 36.728 217.211 39.736C219.003 42.744 219.899 46.392 219.899 50.68V79Z" fill="white"/>
<circle cx="250.5" cy="28.5" r="15.5" fill="url(#paint0_linear_1908_224)"/>
</g>
<defs>
<linearGradient id="paint0_linear_1908_224" x1="250.5" y1="13" x2="250.5" y2="44" gradientUnits="userSpaceOnUse">
<stop stop-color="#6DEDB1"/>
<stop offset="0.134615" stop-color="#00F884"/>
<stop offset="1" stop-color="#03C96D"/>
</linearGradient>
<clipPath id="clip0_1908_224">
<rect width="282" height="92" fill="white"/>
</clipPath>
</defs>
</svg>
