<svg width="80" height="80" viewBox="0 0 80 80" fill="none" xmlns="http://www.w3.org/2000/svg">
<path d="M59.152 43.304H21.808C21.936 47.464 23.056 50.76 25.168 53.192C27.28 55.624 29.968 57.224 33.232 57.992C36.496 58.76 39.984 58.696 43.696 57.8C47.408 56.904 50.928 55.208 54.256 52.712L58.288 58.664C55.152 61.096 51.888 62.888 48.496 64.04C45.104 65.192 41.712 65.8 38.32 65.864C30.32 66.056 24.208 63.848 19.984 59.24C15.76 54.568 13.648 48.072 13.648 39.752C13.648 32.648 15.632 26.984 19.6 22.76C23.632 18.536 29.456 16.456 37.072 16.52C42.064 16.52 46.32 17.544 49.84 19.592C53.36 21.64 55.952 24.68 57.616 28.712C58.448 30.696 58.96 32.904 59.152 35.336C59.408 37.768 59.408 40.424 59.152 43.304ZM37.456 23.624C33.104 23.624 29.392 24.776 26.32 27.08C23.312 29.32 21.808 32.68 21.808 37.16H52.336C52.336 32.936 50.992 29.64 48.304 27.272C45.68 24.84 42.064 23.624 37.456 23.624Z" fill="white"/>
<circle cx="70.5" cy="9.5" r="9.5" fill="url(#paint0_linear_1908_237)"/>
<defs>
<linearGradient id="paint0_linear_1908_237" x1="70.5" y1="0" x2="70.5" y2="19" gradientUnits="userSpaceOnUse">
<stop stop-color="#6DEDB1"/>
<stop offset="0.134615" stop-color="#00F884"/>
<stop offset="1" stop-color="#03C96D"/>
</linearGradient>
</defs>
</svg>
