<svg width="80" height="82" viewBox="0 0 80 82" fill="none" xmlns="http://www.w3.org/2000/svg">
<path d="M55.152 58.304H17.808C17.936 62.464 19.056 65.76 21.168 68.192C23.28 70.624 25.968 72.224 29.232 72.992C32.496 73.76 35.984 73.696 39.696 72.8C43.408 71.904 46.928 70.208 50.256 67.712L54.288 73.664C51.152 76.096 47.888 77.888 44.496 79.04C41.104 80.192 37.712 80.8 34.32 80.864C26.32 81.056 20.208 78.848 15.984 74.24C11.76 69.568 9.648 63.072 9.648 54.752C9.648 47.648 11.632 41.984 15.6 37.76C19.632 33.536 25.456 31.456 33.072 31.52C38.064 31.52 42.32 32.544 45.84 34.592C49.36 36.64 51.952 39.68 53.616 43.712C54.448 45.696 54.96 47.904 55.152 50.336C55.408 52.768 55.408 55.424 55.152 58.304ZM33.456 38.624C29.104 38.624 25.392 39.776 22.32 42.08C19.312 44.32 17.808 47.68 17.808 52.16H48.336C48.336 47.936 46.992 44.64 44.304 42.272C41.68 39.84 38.064 38.624 33.456 38.624Z" fill="white"/>
<circle cx="60.5" cy="22.5" r="11.5" fill="url(#paint0_linear_1908_237)"/>
<defs>
<linearGradient id="paint0_linear_1908_237" x1="60.5" y1="11" x2="60.5" y2="34" gradientUnits="userSpaceOnUse">
<stop stop-color="#6DEDB1"/>
<stop offset="0.134615" stop-color="#00F884"/>
<stop offset="1" stop-color="#03C96D"/>
</linearGradient>
</defs>
</svg>
