<svg width="415" height="45" viewBox="0 0 415 45" fill="none" xmlns="http://www.w3.org/2000/svg">
<path d="M42.0938 14.25C42.0938 16.3958 41.7396 18.2917 41.0312 19.9375C40.3438 21.5833 39.25 22.9688 37.75 24.0938C36.25 25.2188 34.3125 26.0729 31.9375 26.6562C29.5833 27.2188 26.7396 27.5 23.4062 27.5H4.125V44H0.21875V1.0625H23.4062C26.7396 1.0625 29.5833 1.35417 31.9375 1.9375C34.3125 2.5 36.25 3.33333 37.75 4.4375C39.25 5.54167 40.3438 6.91667 41.0312 8.5625C41.7396 10.2083 42.0938 12.1042 42.0938 14.25ZM38.0625 14.25C38.0625 12.2083 37.7188 10.5625 37.0312 9.3125C36.3646 8.0625 35.3229 7.10417 33.9062 6.4375C32.5104 5.75 30.7292 5.29167 28.5625 5.0625C26.4167 4.83333 23.8646 4.71875 20.9062 4.71875H4.125V23.8438H20.9062C22.0521 23.8438 23.2708 23.8542 24.5625 23.875C25.875 23.875 27.1667 23.8125 28.4375 23.6875C29.7083 23.5417 30.9167 23.3021 32.0625 22.9688C33.2292 22.6146 34.25 22.0833 35.125 21.375C36.0208 20.6667 36.7292 19.7396 37.25 18.5938C37.7917 17.4479 38.0625 16 38.0625 14.25ZM52.6562 44V1.0625H56.5625V44H52.6562ZM96.3125 0.28125C98.2917 0.28125 100.135 0.385417 101.844 0.59375C103.552 0.78125 105.188 1.0625 106.75 1.4375C108.312 1.79167 109.833 2.22917 111.312 2.75C112.792 3.25 114.281 3.8125 115.781 4.4375V9.1875C114.594 8.4375 113.323 7.72917 111.969 7.0625C110.635 6.39583 109.188 5.8125 107.625 5.3125C106.083 4.8125 104.417 4.41667 102.625 4.125C100.854 3.83333 98.9479 3.6875 96.9062 3.6875C92.7396 3.6875 89.1042 4.125 86 5C82.8958 5.875 80.3125 7.125 78.25 8.75C76.1875 10.375 74.6354 12.3542 73.5938 14.6875C72.5729 17.0208 72.0625 19.6458 72.0625 22.5625C72.0625 25.2917 72.5625 27.8125 73.5625 30.125C74.5833 32.4167 76.1146 34.3958 78.1562 36.0625C80.2188 37.7292 82.7917 39.0312 85.875 39.9688C88.9583 40.9062 92.5729 41.375 96.7188 41.375C98.3438 41.375 99.9479 41.3125 101.531 41.1875C103.135 41.0625 104.646 40.9062 106.062 40.7188C107.479 40.5104 108.771 40.2917 109.938 40.0625C111.104 39.8125 112.094 39.5625 112.906 39.3125V26.2812H95.4375V22.625H116.812V41.5C115.271 42.0417 113.708 42.5208 112.125 42.9375C110.562 43.3542 108.938 43.7083 107.25 44C105.583 44.2708 103.844 44.4792 102.031 44.625C100.24 44.7708 98.3542 44.8438 96.375 44.8438C92.3333 44.8438 88.5833 44.3958 85.125 43.5C81.6667 42.5833 78.6667 41.2083 76.125 39.375C73.6042 37.5208 71.625 35.1979 70.1875 32.4062C68.75 29.6146 68.0312 26.3333 68.0312 22.5625C68.0312 20.0417 68.3646 17.75 69.0312 15.6875C69.6979 13.6042 70.6354 11.7396 71.8438 10.0938C73.0729 8.42708 74.5417 6.97917 76.25 5.75C77.9792 4.52083 79.8854 3.51042 81.9688 2.71875C84.0729 1.90625 86.3333 1.30208 88.75 0.90625C91.1667 0.489583 93.6875 0.28125 96.3125 0.28125ZM172.25 30.5C172.25 32.6458 171.792 34.6042 170.875 36.375C169.979 38.125 168.625 39.6354 166.812 40.9062C165.021 42.1562 162.771 43.125 160.062 43.8125C157.354 44.5 154.198 44.8438 150.594 44.8438C146.99 44.8438 143.833 44.5 141.125 43.8125C138.417 43.125 136.156 42.1562 134.344 40.9062C132.531 39.6354 131.167 38.125 130.25 36.375C129.354 34.6042 128.906 32.6458 128.906 30.5V1.0625H132.812V30.8125C132.812 32.25 133.188 33.6146 133.938 34.9062C134.708 36.1771 135.844 37.2917 137.344 38.25C138.844 39.2083 140.698 39.9688 142.906 40.5312C145.115 41.0938 147.677 41.375 150.594 41.375C153.49 41.375 156.042 41.0938 158.25 40.5312C160.458 39.9688 162.312 39.2083 163.812 38.25C165.312 37.2917 166.438 36.1771 167.188 34.9062C167.958 33.6146 168.344 32.25 168.344 30.8125V1.0625H172.25V30.5ZM182.312 44V37.2188H187.75V44H182.312ZM232.906 7.40625C232.094 7.01042 231.156 6.59375 230.094 6.15625C229.031 5.69792 227.812 5.29167 226.438 4.9375C225.083 4.58333 223.552 4.29167 221.844 4.0625C220.135 3.8125 218.24 3.6875 216.156 3.6875C213.635 3.6875 211.385 3.83333 209.406 4.125C207.448 4.41667 205.781 4.875 204.406 5.5C203.052 6.10417 202.01 6.875 201.281 7.8125C200.573 8.75 200.219 9.86458 200.219 11.1562C200.219 12.2396 200.552 13.1875 201.219 14C201.906 14.8125 202.823 15.5312 203.969 16.1562C205.135 16.7812 206.49 17.3542 208.031 17.875C209.594 18.375 211.24 18.8542 212.969 19.3125C214.719 19.75 216.51 20.1979 218.344 20.6562C220.198 21.1146 221.99 21.6146 223.719 22.1562C225.469 22.6771 227.115 23.2708 228.656 23.9375C230.219 24.5833 231.573 25.3438 232.719 26.2188C233.885 27.0938 234.802 28.0938 235.469 29.2188C236.156 30.3438 236.5 31.6458 236.5 33.125C236.5 34.7292 236.198 36.1354 235.594 37.3438C234.99 38.5312 234.167 39.5625 233.125 40.4375C232.104 41.2917 230.896 42.0104 229.5 42.5938C228.125 43.1562 226.646 43.6042 225.062 43.9375C223.5 44.2708 221.875 44.5 220.188 44.625C218.521 44.7708 216.875 44.8438 215.25 44.8438C211.521 44.8438 208.135 44.5729 205.094 44.0312C202.073 43.4896 199.188 42.75 196.438 41.8125V37.0312C199.271 38.7188 202.26 39.875 205.406 40.5C208.573 41.125 211.896 41.4375 215.375 41.4375C217.833 41.4375 220.104 41.2917 222.188 41C224.271 40.7083 226.073 40.25 227.594 39.625C229.115 38.9792 230.292 38.1458 231.125 37.125C231.979 36.1042 232.406 34.8542 232.406 33.375C232.406 32.1875 232.062 31.1458 231.375 30.25C230.708 29.3542 229.792 28.5729 228.625 27.9062C227.479 27.2188 226.125 26.6146 224.562 26.0938C223.021 25.5729 221.385 25.0938 219.656 24.6562C217.927 24.1979 216.135 23.7604 214.281 23.3438C212.448 22.9062 210.667 22.4375 208.938 21.9375C207.208 21.4375 205.562 20.875 204 20.25C202.458 19.625 201.104 18.8958 199.938 18.0625C198.792 17.2083 197.875 16.2292 197.188 15.125C196.521 14.0208 196.188 12.7396 196.188 11.2812C196.188 9.84375 196.458 8.57292 197 7.46875C197.542 6.34375 198.281 5.375 199.219 4.5625C200.177 3.75 201.292 3.07292 202.562 2.53125C203.833 1.96875 205.188 1.53125 206.625 1.21875C208.083 0.885417 209.594 0.645833 211.156 0.5C212.719 0.354167 214.26 0.28125 215.781 0.28125C217.448 0.28125 219.021 0.354167 220.5 0.5C222 0.645833 223.438 0.84375 224.812 1.09375C226.208 1.32292 227.562 1.59375 228.875 1.90625C230.208 2.21875 231.552 2.55208 232.906 2.90625V7.40625ZM290.969 44V23.1875H252.5V44H248.594V1.0625H252.5V19.5625H290.969V1.0625H294.875V44H290.969ZM360.875 22.5625C360.875 26.4167 360.177 29.75 358.781 32.5625C357.385 35.3542 355.469 37.6667 353.031 39.5C350.594 41.3125 347.719 42.6562 344.406 43.5312C341.094 44.4062 337.521 44.8438 333.688 44.8438C329.833 44.8438 326.24 44.4062 322.906 43.5312C319.573 42.6562 316.677 41.3125 314.219 39.5C311.76 37.6667 309.833 35.3542 308.438 32.5625C307.042 29.75 306.344 26.4167 306.344 22.5625C306.344 20 306.667 17.6771 307.312 15.5938C307.958 13.4896 308.865 11.6146 310.031 9.96875C311.198 8.30208 312.604 6.86458 314.25 5.65625C315.917 4.44792 317.76 3.44792 319.781 2.65625C321.823 1.84375 324.01 1.25 326.344 0.875C328.677 0.479167 331.125 0.28125 333.688 0.28125C337.521 0.28125 341.094 0.71875 344.406 1.59375C347.719 2.46875 350.594 3.82292 353.031 5.65625C355.469 7.46875 357.385 9.78125 358.781 12.5938C360.177 15.3854 360.875 18.7083 360.875 22.5625ZM356.844 22.5625C356.844 19.5208 356.344 16.8333 355.344 14.5C354.365 12.1667 352.906 10.2083 350.969 8.625C349.031 7.02083 346.615 5.8125 343.719 5C340.844 4.16667 337.5 3.75 333.688 3.75C329.875 3.75 326.51 4.16667 323.594 5C320.698 5.83333 318.271 7.05208 316.312 8.65625C314.354 10.2396 312.875 12.2083 311.875 14.5625C310.875 16.8958 310.375 19.5625 310.375 22.5625C310.375 25.6042 310.875 28.2917 311.875 30.625C312.875 32.9583 314.354 34.9271 316.312 36.5312C318.271 38.1146 320.698 39.3229 323.594 40.1562C326.51 40.9688 329.875 41.375 333.688 41.375C337.5 41.375 340.844 40.9688 343.719 40.1562C346.615 39.3229 349.031 38.1146 350.969 36.5312C352.906 34.9271 354.365 32.9583 355.344 30.625C356.344 28.2917 356.844 25.6042 356.844 22.5625ZM414.219 14.25C414.219 16.3958 413.865 18.2917 413.156 19.9375C412.469 21.5833 411.375 22.9688 409.875 24.0938C408.375 25.2188 406.438 26.0729 404.062 26.6562C401.708 27.2188 398.865 27.5 395.531 27.5H376.25V44H372.344V1.0625H395.531C398.865 1.0625 401.708 1.35417 404.062 1.9375C406.438 2.5 408.375 3.33333 409.875 4.4375C411.375 5.54167 412.469 6.91667 413.156 8.5625C413.865 10.2083 414.219 12.1042 414.219 14.25ZM410.188 14.25C410.188 12.2083 409.844 10.5625 409.156 9.3125C408.49 8.0625 407.448 7.10417 406.031 6.4375C404.635 5.75 402.854 5.29167 400.688 5.0625C398.542 4.83333 395.99 4.71875 393.031 4.71875H376.25V23.8438H393.031C394.177 23.8438 395.396 23.8542 396.688 23.875C398 23.875 399.292 23.8125 400.562 23.6875C401.833 23.5417 403.042 23.3021 404.188 22.9688C405.354 22.6146 406.375 22.0833 407.25 21.375C408.146 20.6667 408.854 19.7396 409.375 18.5938C409.917 17.4479 410.188 16 410.188 14.25Z" fill="white"/>
</svg>
