<svg width="216" height="51" viewBox="0 0 216 51" fill="none" xmlns="http://www.w3.org/2000/svg">
<path d="M45.768 25.96H5.928C5.928 30.952 7.016 34.984 9.192 38.056C11.432 41.064 14.344 43.144 17.928 44.296C21.576 45.384 25.48 45.512 29.64 44.68C33.864 43.848 37.96 42.024 41.928 39.208L44.424 43.24C41.544 45.416 38.472 47.048 35.208 48.136C32.008 49.16 28.712 49.736 25.32 49.864C17.448 50.184 11.336 48.008 6.984 43.336C2.632 38.6 0.456 32.072 0.456 23.752C0.456 16.584 2.408 10.92 6.312 6.76C10.216 2.6 16.136 0.52 24.072 0.52C29 0.52 33.224 1.544 36.744 3.592C40.328 5.64 42.92 8.68 44.52 12.712C45.224 14.504 45.672 16.52 45.864 18.76C46.056 21 46.024 23.4 45.768 25.96ZM24.072 5.32C20.936 5.32 17.992 5.832 15.24 6.856C12.488 7.88 10.248 9.544 8.52 11.848C6.792 14.088 5.928 17.16 5.928 21.064H40.968C40.968 15.688 39.432 11.72 36.36 9.16C33.288 6.6 29.192 5.32 24.072 5.32ZM89.5943 43.048C86.2023 45.992 82.7143 47.944 79.1303 48.904C75.5463 49.864 72.0583 49.96 68.6663 49.192C65.3383 48.424 62.3303 46.92 59.6423 44.68C56.9543 42.44 54.8103 39.592 53.2103 36.136C51.6743 32.68 50.9063 28.808 50.9063 24.52C50.9063 20.232 51.6743 16.456 53.2103 13.192C54.8103 9.928 56.9543 7.272 59.6423 5.224C62.3303 3.176 65.3383 1.832 68.6663 1.192C72.0583 0.487999 75.5463 0.583999 79.1303 1.48C82.7783 2.376 86.2663 4.2 89.5943 6.952L86.7143 10.696C83.2583 8.136 79.7063 6.632 76.0583 6.184C72.4743 5.672 69.1463 6.088 66.0743 7.432C63.0663 8.776 60.6023 10.92 58.6823 13.864C56.8263 16.744 55.8983 20.296 55.8983 24.52C55.8983 29 56.8583 32.84 58.7783 36.04C60.7623 39.24 63.3223 41.576 66.4583 43.048C69.5943 44.52 72.9543 45 76.5383 44.488C80.1223 43.912 83.5143 42.12 86.7143 39.112L89.5943 43.048ZM114.83 50.152C110.286 50.152 106.254 49.16 102.734 47.176C99.2775 45.128 96.5575 42.312 94.5735 38.728C92.5895 35.08 91.5975 30.856 91.5975 26.056C91.5975 20.424 92.6535 15.72 94.7655 11.944C96.8775 8.168 99.6935 5.32 103.214 3.4C106.734 1.48 110.606 0.52 114.83 0.52C119.438 0.52 123.47 1.48 126.926 3.4C130.446 5.32 133.166 8.168 135.086 11.944C137.07 15.72 138.062 20.424 138.062 26.056C138.062 30.856 137.07 35.08 135.086 38.728C133.166 42.312 130.446 45.128 126.926 47.176C123.47 49.16 119.438 50.152 114.83 50.152ZM114.83 45.256C118.798 45.256 122.126 44.424 124.814 42.76C127.566 41.032 129.646 38.728 131.054 35.848C132.462 32.904 133.166 29.64 133.166 26.056C133.166 19.976 131.566 15.016 128.366 11.176C125.23 7.336 120.718 5.416 114.83 5.416C110.798 5.416 107.406 6.312 104.654 8.104C101.966 9.896 99.9175 12.36 98.5095 15.496C97.1655 18.568 96.4935 22.088 96.4935 26.056C96.4935 29.64 97.1655 32.904 98.5095 35.848C99.9175 38.728 101.966 41.032 104.654 42.76C107.406 44.424 110.798 45.256 114.83 45.256ZM215.673 49H210.777V20.2C210.777 15.272 209.433 11.496 206.745 8.872C204.121 6.248 200.697 4.936 196.473 4.936C192.185 4.936 188.697 6.248 186.009 8.872C183.385 11.496 182.073 15.272 182.073 20.2V49H177.177V20.2C177.177 15.016 175.769 11.176 172.953 8.68C170.137 6.184 166.489 4.936 162.009 4.936C160.025 4.936 157.913 5.48 155.673 6.568C153.497 7.656 151.641 9.352 150.105 11.656C148.569 13.896 147.801 16.744 147.801 20.2V49H142.905V1H147.801V6.76C149.465 4.712 151.481 3.176 153.849 2.152C156.281 1.064 158.873 0.487999 161.625 0.423996C164.889 0.359997 168.153 1.032 171.417 2.44C174.681 3.848 177.497 6.088 179.865 9.16C181.721 6.152 184.121 3.976 187.065 2.632C190.009 1.224 193.241 0.52 196.761 0.52C200.025 0.52 203.097 1.256 205.977 2.728C208.857 4.136 211.193 6.312 212.985 9.256C214.777 12.136 215.673 15.784 215.673 20.2V49Z" fill="white"/>
</svg>
