<svg width="454" height="64" viewBox="0 0 454 64" fill="none" xmlns="http://www.w3.org/2000/svg">
<path d="M3.336 64C1.32 64 0.312 62.992 0.312 60.976V4.096C0.312 2.08 1.32 1.07199 3.336 1.07199H25.8C31.4 1.07199 35.656 2.528 38.568 5.44C41.48 8.352 42.936 12.608 42.936 18.208V21.088C42.936 26.656 41.48 30.912 38.568 33.856C35.656 36.768 31.4 38.224 25.8 38.224H6.36V60.976C6.36 62.992 5.352 64 3.336 64ZM6.36 32.176H25.8C29.736 32.176 32.568 31.312 34.296 29.584C36.024 27.824 36.888 24.992 36.888 21.088V18.208C36.888 14.304 36.024 11.488 34.296 9.76C32.568 8 29.736 7.12 25.8 7.12H6.36V32.176ZM54.996 64C54.036 64 53.284 63.744 52.74 63.232C52.228 62.688 51.972 61.936 51.972 60.976V4.096C51.972 3.104 52.228 2.352 52.74 1.84C53.284 1.328 54.036 1.07199 54.996 1.07199C55.988 1.07199 56.74 1.328 57.252 1.84C57.764 2.352 58.02 3.104 58.02 4.096V60.976C58.02 61.936 57.764 62.688 57.252 63.232C56.74 63.744 55.988 64 54.996 64ZM91.6523 64C84.5803 64 79.3963 62.352 76.1003 59.056C72.8043 55.76 71.1563 50.576 71.1563 43.504V21.568C71.1563 14.432 72.8043 9.232 76.1003 5.96799C79.3963 2.672 84.5483 1.04 91.5563 1.07199H103.172C109.124 1.07199 113.588 2.304 116.564 4.768C119.54 7.2 121.204 11.12 121.556 16.528C121.684 17.52 121.492 18.288 120.98 18.832C120.468 19.376 119.7 19.648 118.676 19.648C116.82 19.648 115.764 18.64 115.508 16.624C115.252 12.976 114.18 10.48 112.292 9.136C110.436 7.792 107.396 7.12 103.172 7.12H91.5563C87.9723 7.088 85.1403 7.51999 83.0603 8.41599C80.9803 9.312 79.4763 10.816 78.5483 12.928C77.6523 15.04 77.2043 17.92 77.2043 21.568V43.504C77.2043 47.088 77.6523 49.936 78.5483 52.048C79.4763 54.16 80.9963 55.68 83.1083 56.608C85.2203 57.504 88.0683 57.952 91.6523 57.952H103.172C106.372 57.952 108.884 57.584 110.708 56.848C112.532 56.08 113.812 54.784 114.548 52.96C115.316 51.136 115.7 48.624 115.7 45.424V39.904L106.196 39.808C104.18 39.808 103.172 38.8 103.172 36.784C103.172 34.768 104.18 33.76 106.196 33.76L118.724 33.856C120.74 33.856 121.748 34.864 121.748 36.88V45.424C121.748 51.92 120.26 56.64 117.284 59.584C114.34 62.528 109.636 64 103.172 64H91.6523ZM154.027 64C146.955 64 141.771 62.352 138.475 59.056C135.179 55.76 133.531 50.576 133.531 43.504V4.096C133.531 3.136 133.787 2.4 134.299 1.888C134.843 1.344 135.595 1.07199 136.555 1.07199C137.515 1.07199 138.251 1.344 138.763 1.888C139.307 2.4 139.579 3.136 139.579 4.096V43.504C139.579 47.088 140.027 49.936 140.923 52.048C141.851 54.16 143.371 55.68 145.483 56.608C147.595 57.504 150.443 57.952 154.027 57.952H165.547C169.163 57.952 172.011 57.504 174.091 56.608C176.203 55.68 177.707 54.16 178.603 52.048C179.531 49.936 179.995 47.088 179.995 43.504V4.096C179.995 3.136 180.251 2.4 180.763 1.888C181.307 1.344 182.059 1.07199 183.019 1.07199C183.979 1.07199 184.715 1.344 185.227 1.888C185.771 2.4 186.043 3.136 186.043 4.096V43.504C186.043 50.576 184.395 55.76 181.099 59.056C177.835 62.352 172.651 64 165.547 64H154.027ZM201.589 64C199.51 64 198.47 62.944 198.47 60.832V58.816C198.47 56.768 199.51 55.744 201.589 55.744H203.558C205.574 55.744 206.582 56.768 206.582 58.816V60.832C206.582 62.944 205.574 64 203.558 64H201.589ZM235.457 63.952C229.825 63.952 225.569 62.736 222.689 60.304C219.841 57.872 218.225 54.064 217.841 48.88C217.777 47.888 218.017 47.12 218.561 46.576C219.105 46.032 219.857 45.76 220.817 45.76C221.777 45.76 222.497 46.016 222.977 46.528C223.489 47.04 223.809 47.776 223.937 48.736C224.161 52.16 225.137 54.544 226.865 55.888C228.593 57.232 231.457 57.904 235.457 57.904H249.281C253.697 57.904 256.737 57.072 258.401 55.408C260.097 53.712 260.945 50.688 260.945 46.336C260.945 41.92 260.081 38.88 258.353 37.216C256.657 35.52 253.633 34.672 249.281 34.672H236.561C230.769 34.672 226.513 33.312 223.793 30.592C221.073 27.84 219.713 23.584 219.713 17.824C219.713 12.064 221.057 7.84 223.745 5.152C226.465 2.432 230.705 1.07199 236.465 1.07199H249.233C254.513 1.07199 258.497 2.224 261.185 4.528C263.905 6.8 265.457 10.368 265.841 15.232C265.937 16.192 265.713 16.96 265.169 17.536C264.625 18.08 263.857 18.352 262.865 18.352C261.937 18.352 261.217 18.096 260.705 17.584C260.193 17.04 259.889 16.304 259.793 15.376C259.537 12.272 258.609 10.128 257.009 8.944C255.409 7.728 252.817 7.12 249.233 7.12H236.465C232.369 7.12 229.553 7.904 228.017 9.472C226.513 11.008 225.761 13.792 225.761 17.824C225.761 21.856 226.529 24.672 228.065 26.272C229.633 27.84 232.465 28.624 236.561 28.624H249.281C255.329 28.624 259.793 30.064 262.673 32.944C265.553 35.792 266.993 40.256 266.993 46.336C266.993 52.384 265.553 56.832 262.673 59.68C259.825 62.528 255.361 63.952 249.281 63.952H235.457ZM283.202 64C282.338 64 281.618 63.712 281.042 63.136C280.466 62.56 280.178 61.84 280.178 60.976V4.096C280.178 3.232 280.466 2.512 281.042 1.936C281.618 1.35999 282.338 1.07199 283.202 1.07199C284.066 1.07199 284.786 1.35999 285.362 1.936C285.938 2.512 286.226 3.232 286.226 4.096V29.104H326.114V4.096C326.114 3.232 326.402 2.512 326.978 1.936C327.554 1.35999 328.274 1.07199 329.138 1.07199C330.002 1.07199 330.722 1.35999 331.298 1.936C331.874 2.512 332.162 3.232 332.162 4.096V60.976C332.162 61.84 331.874 62.56 331.298 63.136C330.722 63.712 330.002 64 329.138 64C328.274 64 327.554 63.712 326.978 63.136C326.402 62.56 326.114 61.84 326.114 60.976V35.152H286.226V60.976C286.226 61.84 285.938 62.56 285.362 63.136C284.786 63.712 284.066 64 283.202 64ZM365.796 64C358.724 64 353.54 62.352 350.244 59.056C346.948 55.76 345.3 50.576 345.3 43.504V21.52C345.3 14.384 346.948 9.184 350.244 5.92C353.572 2.624 358.74 1.008 365.748 1.07199H377.316C384.42 1.07199 389.604 2.72 392.868 6.016C396.164 9.28 397.812 14.464 397.812 21.568V43.504C397.812 50.576 396.164 55.76 392.868 59.056C389.604 62.352 384.42 64 377.316 64H365.796ZM365.796 57.952H377.316C380.932 57.952 383.78 57.504 385.86 56.608C387.972 55.68 389.476 54.16 390.372 52.048C391.3 49.936 391.764 47.088 391.764 43.504V21.568C391.764 17.984 391.3 15.136 390.372 13.024C389.476 10.912 387.972 9.408 385.86 8.512C383.78 7.584 380.932 7.12 377.316 7.12H365.748C362.164 7.088 359.316 7.51999 357.204 8.41599C355.124 9.312 353.62 10.816 352.692 12.928C351.796 15.04 351.348 17.904 351.348 21.52V43.504C351.348 47.088 351.796 49.936 352.692 52.048C353.62 54.16 355.14 55.68 357.252 56.608C359.364 57.504 362.212 57.952 365.796 57.952ZM413.991 64C411.975 64 410.967 62.992 410.967 60.976V4.096C410.967 2.08 411.975 1.07199 413.991 1.07199H436.455C442.055 1.07199 446.311 2.528 449.223 5.44C452.135 8.352 453.591 12.608 453.591 18.208V21.088C453.591 26.656 452.135 30.912 449.223 33.856C446.311 36.768 442.055 38.224 436.455 38.224H417.015V60.976C417.015 62.992 416.007 64 413.991 64ZM417.015 32.176H436.455C440.391 32.176 443.223 31.312 444.951 29.584C446.679 27.824 447.543 24.992 447.543 21.088V18.208C447.543 14.304 446.679 11.488 444.951 9.76C443.223 8 440.391 7.12 436.455 7.12H417.015V32.176Z" fill="white"/>
</svg>
